%TF.GenerationSoftware,KiCad,Pcbnew,(5.1.6)-1*%
%TF.CreationDate,2021-08-06T10:58:56-04:00*%
%TF.ProjectId,RemoteTemp - MSP430 - RS422,52656d6f-7465-4546-956d-70202d204d53,rev?*%
%TF.SameCoordinates,Original*%
%TF.FileFunction,Copper,L2,Bot*%
%TF.FilePolarity,Positive*%
%FSLAX46Y46*%
G04 Gerber Fmt 4.6, Leading zero omitted, Abs format (unit mm)*
G04 Created by KiCad (PCBNEW (5.1.6)-1) date 2021-08-06 10:58:56*
%MOMM*%
%LPD*%
G01*
G04 APERTURE LIST*
%TA.AperFunction,ComponentPad*%
%ADD10C,5.000000*%
%TD*%
%TA.AperFunction,ComponentPad*%
%ADD11R,3.000000X2.000000*%
%TD*%
%TA.AperFunction,ComponentPad*%
%ADD12O,3.000000X2.000000*%
%TD*%
%TA.AperFunction,ComponentPad*%
%ADD13R,1.700000X1.700000*%
%TD*%
%TA.AperFunction,ComponentPad*%
%ADD14O,1.700000X1.700000*%
%TD*%
%TA.AperFunction,ViaPad*%
%ADD15C,0.750000*%
%TD*%
%TA.AperFunction,Conductor*%
%ADD16C,0.400000*%
%TD*%
%TA.AperFunction,Conductor*%
%ADD17C,0.300000*%
%TD*%
%TA.AperFunction,Conductor*%
%ADD18C,0.230000*%
%TD*%
G04 APERTURE END LIST*
D10*
%TO.P,H1,1*%
%TO.N,Net-(C8-Pad1)*%
X152000000Y-86000000D03*
%TD*%
D11*
%TO.P,J1,1*%
%TO.N,/RS485A_RS422Y*%
X153300000Y-92400000D03*
D12*
%TO.P,J1,2*%
%TO.N,/RS485B_RS422Z*%
X153300000Y-94940000D03*
%TO.P,J1,3*%
%TO.N,/RS422_A*%
X153300000Y-97480000D03*
%TO.P,J1,4*%
%TO.N,/RS422_B*%
X153300000Y-100020000D03*
%TO.P,J1,5*%
%TO.N,GND*%
X153300000Y-102560000D03*
%TO.P,J1,6*%
%TO.N,VBUS*%
X153300000Y-105100000D03*
%TD*%
D13*
%TO.P,J2,1*%
%TO.N,SBWTCK*%
X134620000Y-85000000D03*
D14*
%TO.P,J2,2*%
%TO.N,SBWTDIO*%
X137160000Y-85000000D03*
%TO.P,J2,3*%
%TO.N,VDD*%
X139700000Y-85000000D03*
%TO.P,J2,4*%
%TO.N,GND*%
X142240000Y-85000000D03*
%TO.P,J2,5*%
%TO.N,UART_RXD*%
X144780000Y-85000000D03*
%TO.P,J2,6*%
%TO.N,UART_TXD*%
X147320000Y-85000000D03*
%TD*%
D15*
%TO.N,GND*%
X138950000Y-99200000D03*
X139550000Y-103749996D03*
X134600000Y-96900000D03*
X139300000Y-89600000D03*
X143700000Y-86300000D03*
X150800000Y-89900000D03*
X149700000Y-88600000D03*
X145500000Y-98900000D03*
X140900000Y-99100000D03*
X141500000Y-100200000D03*
X138500000Y-105900000D03*
X133300000Y-98200000D03*
X151100000Y-101200000D03*
X151100000Y-103800000D03*
X149700000Y-101200000D03*
X148200000Y-101200000D03*
X144700000Y-100600000D03*
X146100000Y-100800000D03*
X146800000Y-103100000D03*
X148200000Y-102300000D03*
X144100000Y-105700000D03*
X146000000Y-86300000D03*
X136400000Y-94800000D03*
X135400000Y-94800000D03*
X134400000Y-94800000D03*
X133400000Y-94800000D03*
X132700000Y-93800000D03*
X133900000Y-93800000D03*
X134900000Y-93800000D03*
X135900000Y-93800000D03*
X133900000Y-95800000D03*
X134900000Y-95800000D03*
X135900000Y-95800000D03*
X132700000Y-95800000D03*
X132700000Y-97200000D03*
X134300000Y-92300000D03*
X133200000Y-92300000D03*
X132700000Y-90800000D03*
X132700000Y-89600000D03*
X132700000Y-88400000D03*
X145400000Y-106200000D03*
X146600000Y-106200000D03*
X147900000Y-106200000D03*
X149200000Y-106200000D03*
X150500000Y-106200000D03*
X142300000Y-91700000D03*
X141400000Y-92500000D03*
X140400000Y-91800002D03*
X154500000Y-90700000D03*
X155000000Y-89700008D03*
X140800000Y-103400000D03*
%TO.N,VDD*%
X133100000Y-86400000D03*
X138900000Y-97400000D03*
X142125000Y-97600000D03*
X143500000Y-83700000D03*
%TO.N,UART_RXD*%
X145000000Y-88400000D03*
%TO.N,RLED*%
X135900000Y-90200000D03*
X138300000Y-90100000D03*
%TO.N,UART_TXD*%
X146800000Y-87400000D03*
X146800000Y-89100000D03*
X144200000Y-93700000D03*
X145399997Y-92500005D03*
%TD*%
D16*
%TO.N,VDD*%
X141000000Y-83700000D02*
X139700000Y-85000000D01*
X143500000Y-83700000D02*
X141000000Y-83700000D01*
X133600000Y-83600000D02*
X138300000Y-83600000D01*
X133100000Y-86400000D02*
X133100000Y-84100000D01*
X138300000Y-83600000D02*
X139700000Y-85000000D01*
X133100000Y-84100000D02*
X133600000Y-83600000D01*
X141925000Y-97400000D02*
X138900000Y-97400000D01*
X142125000Y-97600000D02*
X141925000Y-97400000D01*
%TO.N,UART_RXD*%
X145000000Y-85220000D02*
X144780000Y-85000000D01*
X145000000Y-88400000D02*
X145000000Y-85220000D01*
D17*
%TO.N,RLED*%
X135900000Y-90200000D02*
X138200000Y-90200000D01*
X138200000Y-90200000D02*
X138300000Y-90100000D01*
D16*
%TO.N,UART_TXD*%
X144200002Y-93700000D02*
X145399997Y-92500005D01*
X144200000Y-93700000D02*
X144200002Y-93700000D01*
X146800000Y-89100000D02*
X146800000Y-87400000D01*
%TD*%
D18*
%TO.N,GND*%
G36*
X148685000Y-87254007D02*
G01*
X148688154Y-87280755D01*
X148695521Y-87302061D01*
X148730442Y-87377986D01*
X148744484Y-87400968D01*
X148760080Y-87417246D01*
X150797072Y-89163240D01*
X150811739Y-89173927D01*
X150832015Y-89183783D01*
X150897094Y-89207857D01*
X150914557Y-89212790D01*
X150936992Y-89215000D01*
X155606000Y-89215000D01*
X155606000Y-91085000D01*
X154993455Y-91085000D01*
X154941893Y-91057439D01*
X154872337Y-91036340D01*
X154800000Y-91029215D01*
X151800000Y-91029215D01*
X151727663Y-91036340D01*
X151658107Y-91057439D01*
X151594003Y-91091704D01*
X151537815Y-91137815D01*
X151491704Y-91194003D01*
X151457439Y-91258107D01*
X151436340Y-91327663D01*
X151429215Y-91400000D01*
X151429215Y-93400000D01*
X151436340Y-93472337D01*
X151457439Y-93541893D01*
X151491704Y-93605997D01*
X151537815Y-93662185D01*
X151594003Y-93708296D01*
X151658107Y-93742561D01*
X151727663Y-93763660D01*
X151800000Y-93770785D01*
X151885000Y-93770785D01*
X151885000Y-93919923D01*
X151827287Y-93967287D01*
X151656210Y-94175744D01*
X151529089Y-94413571D01*
X151450808Y-94671629D01*
X151424376Y-94940000D01*
X151450808Y-95208371D01*
X151529089Y-95466429D01*
X151656210Y-95704256D01*
X151827287Y-95912713D01*
X151885000Y-95960077D01*
X151885000Y-96459923D01*
X151827287Y-96507287D01*
X151656210Y-96715744D01*
X151529089Y-96953571D01*
X151450808Y-97211629D01*
X151424376Y-97480000D01*
X151450808Y-97748371D01*
X151529089Y-98006429D01*
X151656210Y-98244256D01*
X151827287Y-98452713D01*
X151885000Y-98500077D01*
X151885000Y-98999923D01*
X151827287Y-99047287D01*
X151656210Y-99255744D01*
X151529089Y-99493571D01*
X151450808Y-99751629D01*
X151424376Y-100020000D01*
X151450808Y-100288371D01*
X151529089Y-100546429D01*
X151656210Y-100784256D01*
X151827287Y-100992713D01*
X151885000Y-101040077D01*
X151885000Y-101420882D01*
X151721662Y-101566515D01*
X151548563Y-101795978D01*
X151423556Y-102054802D01*
X151363637Y-102271754D01*
X151452585Y-102500000D01*
X151885000Y-102500000D01*
X151885000Y-102620000D01*
X151452585Y-102620000D01*
X151363637Y-102848246D01*
X151423556Y-103065198D01*
X151548563Y-103324022D01*
X151721662Y-103553485D01*
X151885000Y-103699118D01*
X151885000Y-104079923D01*
X151827287Y-104127287D01*
X151656210Y-104335744D01*
X151529089Y-104573571D01*
X151450808Y-104831629D01*
X151424376Y-105100000D01*
X151450808Y-105368371D01*
X151529089Y-105626429D01*
X151656210Y-105864256D01*
X151827287Y-106072713D01*
X151885000Y-106120077D01*
X151885000Y-106606000D01*
X137615000Y-106606000D01*
X137615000Y-99100000D01*
X137612790Y-99077565D01*
X137606246Y-99055992D01*
X137576957Y-98985281D01*
X137566330Y-98965398D01*
X137552028Y-98947971D01*
X137534601Y-98933670D01*
X137514719Y-98923043D01*
X137444008Y-98893754D01*
X137422435Y-98887210D01*
X137400000Y-98885000D01*
X132394000Y-98885000D01*
X132394000Y-97326722D01*
X138156000Y-97326722D01*
X138156000Y-97473278D01*
X138184591Y-97617017D01*
X138240676Y-97752416D01*
X138322097Y-97874272D01*
X138425728Y-97977903D01*
X138547584Y-98059324D01*
X138682983Y-98115409D01*
X138826722Y-98144000D01*
X138973278Y-98144000D01*
X139117017Y-98115409D01*
X139252416Y-98059324D01*
X139374272Y-97977903D01*
X139383175Y-97969000D01*
X141476757Y-97969000D01*
X141547097Y-98074272D01*
X141650728Y-98177903D01*
X141772584Y-98259324D01*
X141907983Y-98315409D01*
X142051722Y-98344000D01*
X142198278Y-98344000D01*
X142342017Y-98315409D01*
X142477416Y-98259324D01*
X142599272Y-98177903D01*
X142702903Y-98074272D01*
X142784324Y-97952416D01*
X142840409Y-97817017D01*
X142869000Y-97673278D01*
X142869000Y-97526722D01*
X142840409Y-97382983D01*
X142784324Y-97247584D01*
X142702903Y-97125728D01*
X142599272Y-97022097D01*
X142477416Y-96940676D01*
X142342017Y-96884591D01*
X142198278Y-96856000D01*
X142091816Y-96856000D01*
X142036543Y-96839233D01*
X141952952Y-96831000D01*
X141952942Y-96831000D01*
X141925000Y-96828248D01*
X141897058Y-96831000D01*
X139383175Y-96831000D01*
X139374272Y-96822097D01*
X139252416Y-96740676D01*
X139117017Y-96684591D01*
X138973278Y-96656000D01*
X138826722Y-96656000D01*
X138682983Y-96684591D01*
X138547584Y-96740676D01*
X138425728Y-96822097D01*
X138322097Y-96925728D01*
X138240676Y-97047584D01*
X138184591Y-97182983D01*
X138156000Y-97326722D01*
X132394000Y-97326722D01*
X132394000Y-93626722D01*
X143456000Y-93626722D01*
X143456000Y-93773278D01*
X143484591Y-93917017D01*
X143540676Y-94052416D01*
X143622097Y-94174272D01*
X143725728Y-94277903D01*
X143847584Y-94359324D01*
X143982983Y-94415409D01*
X144126722Y-94444000D01*
X144273278Y-94444000D01*
X144417017Y-94415409D01*
X144552416Y-94359324D01*
X144674272Y-94277903D01*
X144777903Y-94174272D01*
X144859324Y-94052416D01*
X144915409Y-93917017D01*
X144944000Y-93773278D01*
X144944000Y-93760688D01*
X145460684Y-93244005D01*
X145473275Y-93244005D01*
X145617014Y-93215414D01*
X145752413Y-93159329D01*
X145874269Y-93077908D01*
X145977900Y-92974277D01*
X146059321Y-92852421D01*
X146115406Y-92717022D01*
X146143997Y-92573283D01*
X146143997Y-92426727D01*
X146115406Y-92282988D01*
X146059321Y-92147589D01*
X145977900Y-92025733D01*
X145874269Y-91922102D01*
X145752413Y-91840681D01*
X145617014Y-91784596D01*
X145473275Y-91756005D01*
X145326719Y-91756005D01*
X145182980Y-91784596D01*
X145047581Y-91840681D01*
X144925725Y-91922102D01*
X144822094Y-92025733D01*
X144740673Y-92147589D01*
X144684588Y-92282988D01*
X144655997Y-92426727D01*
X144655997Y-92439318D01*
X144139316Y-92956000D01*
X144126722Y-92956000D01*
X143982983Y-92984591D01*
X143847584Y-93040676D01*
X143725728Y-93122097D01*
X143622097Y-93225728D01*
X143540676Y-93347584D01*
X143484591Y-93482983D01*
X143456000Y-93626722D01*
X132394000Y-93626722D01*
X132394000Y-90126722D01*
X135156000Y-90126722D01*
X135156000Y-90273278D01*
X135184591Y-90417017D01*
X135240676Y-90552416D01*
X135322097Y-90674272D01*
X135425728Y-90777903D01*
X135547584Y-90859324D01*
X135682983Y-90915409D01*
X135826722Y-90944000D01*
X135973278Y-90944000D01*
X136117017Y-90915409D01*
X136252416Y-90859324D01*
X136374272Y-90777903D01*
X136433175Y-90719000D01*
X137887234Y-90719000D01*
X137947584Y-90759324D01*
X138082983Y-90815409D01*
X138226722Y-90844000D01*
X138373278Y-90844000D01*
X138517017Y-90815409D01*
X138652416Y-90759324D01*
X138774272Y-90677903D01*
X138877903Y-90574272D01*
X138959324Y-90452416D01*
X139015409Y-90317017D01*
X139044000Y-90173278D01*
X139044000Y-90026722D01*
X139015409Y-89882983D01*
X138959324Y-89747584D01*
X138877903Y-89625728D01*
X138774272Y-89522097D01*
X138652416Y-89440676D01*
X138517017Y-89384591D01*
X138373278Y-89356000D01*
X138226722Y-89356000D01*
X138082983Y-89384591D01*
X137947584Y-89440676D01*
X137825728Y-89522097D01*
X137722097Y-89625728D01*
X137685166Y-89681000D01*
X136433175Y-89681000D01*
X136374272Y-89622097D01*
X136252416Y-89540676D01*
X136117017Y-89484591D01*
X135973278Y-89456000D01*
X135826722Y-89456000D01*
X135682983Y-89484591D01*
X135547584Y-89540676D01*
X135425728Y-89622097D01*
X135322097Y-89725728D01*
X135240676Y-89847584D01*
X135184591Y-89982983D01*
X135156000Y-90126722D01*
X132394000Y-90126722D01*
X132394000Y-86639732D01*
X132440676Y-86752416D01*
X132522097Y-86874272D01*
X132625728Y-86977903D01*
X132747584Y-87059324D01*
X132882983Y-87115409D01*
X133026722Y-87144000D01*
X133173278Y-87144000D01*
X133317017Y-87115409D01*
X133452416Y-87059324D01*
X133574272Y-86977903D01*
X133677903Y-86874272D01*
X133759324Y-86752416D01*
X133815409Y-86617017D01*
X133844000Y-86473278D01*
X133844000Y-86326722D01*
X133822928Y-86220785D01*
X135470000Y-86220785D01*
X135542337Y-86213660D01*
X135611893Y-86192561D01*
X135675997Y-86158296D01*
X135732185Y-86112185D01*
X135778296Y-86055997D01*
X135812561Y-85991893D01*
X135833660Y-85922337D01*
X135840785Y-85850000D01*
X135840785Y-84169000D01*
X136267074Y-84169000D01*
X136213141Y-84222933D01*
X136079736Y-84422587D01*
X135987846Y-84644431D01*
X135941000Y-84879939D01*
X135941000Y-85120061D01*
X135987846Y-85355569D01*
X136079736Y-85577413D01*
X136213141Y-85777067D01*
X136382933Y-85946859D01*
X136582587Y-86080264D01*
X136804431Y-86172154D01*
X137039939Y-86219000D01*
X137280061Y-86219000D01*
X137515569Y-86172154D01*
X137737413Y-86080264D01*
X137937067Y-85946859D01*
X138106859Y-85777067D01*
X138240264Y-85577413D01*
X138332154Y-85355569D01*
X138379000Y-85120061D01*
X138379000Y-84879939D01*
X138332154Y-84644431D01*
X138240264Y-84422587D01*
X138106859Y-84222933D01*
X138052926Y-84169000D01*
X138064314Y-84169000D01*
X138531331Y-84636017D01*
X138527846Y-84644431D01*
X138481000Y-84879939D01*
X138481000Y-85120061D01*
X138527846Y-85355569D01*
X138619736Y-85577413D01*
X138753141Y-85777067D01*
X138922933Y-85946859D01*
X139122587Y-86080264D01*
X139344431Y-86172154D01*
X139579939Y-86219000D01*
X139820061Y-86219000D01*
X140055569Y-86172154D01*
X140277413Y-86080264D01*
X140477067Y-85946859D01*
X140646859Y-85777067D01*
X140780264Y-85577413D01*
X140872154Y-85355569D01*
X140890217Y-85264759D01*
X140951926Y-85264759D01*
X141028328Y-85510963D01*
X141151294Y-85737530D01*
X141316098Y-85935755D01*
X141516407Y-86098019D01*
X141744524Y-86218087D01*
X141975242Y-86288071D01*
X142180000Y-86197247D01*
X142180000Y-85060000D01*
X142300000Y-85060000D01*
X142300000Y-86197247D01*
X142504758Y-86288071D01*
X142735476Y-86218087D01*
X142963593Y-86098019D01*
X143163902Y-85935755D01*
X143328706Y-85737530D01*
X143451672Y-85510963D01*
X143528074Y-85264759D01*
X143437383Y-85060000D01*
X142300000Y-85060000D01*
X142180000Y-85060000D01*
X141042617Y-85060000D01*
X140951926Y-85264759D01*
X140890217Y-85264759D01*
X140919000Y-85120061D01*
X140919000Y-84879939D01*
X140872154Y-84644431D01*
X140868669Y-84636018D01*
X141043375Y-84461312D01*
X141028328Y-84489037D01*
X140951926Y-84735241D01*
X141042617Y-84940000D01*
X142180000Y-84940000D01*
X142180000Y-84920000D01*
X142300000Y-84920000D01*
X142300000Y-84940000D01*
X143437383Y-84940000D01*
X143528074Y-84735241D01*
X143451672Y-84489037D01*
X143427229Y-84444000D01*
X143573278Y-84444000D01*
X143702619Y-84418273D01*
X143699736Y-84422587D01*
X143607846Y-84644431D01*
X143561000Y-84879939D01*
X143561000Y-85120061D01*
X143607846Y-85355569D01*
X143699736Y-85577413D01*
X143833141Y-85777067D01*
X144002933Y-85946859D01*
X144202587Y-86080264D01*
X144424431Y-86172154D01*
X144431001Y-86173461D01*
X144431000Y-87916825D01*
X144422097Y-87925728D01*
X144340676Y-88047584D01*
X144284591Y-88182983D01*
X144256000Y-88326722D01*
X144256000Y-88473278D01*
X144284591Y-88617017D01*
X144340676Y-88752416D01*
X144422097Y-88874272D01*
X144525728Y-88977903D01*
X144647584Y-89059324D01*
X144782983Y-89115409D01*
X144926722Y-89144000D01*
X145073278Y-89144000D01*
X145217017Y-89115409D01*
X145352416Y-89059324D01*
X145474272Y-88977903D01*
X145577903Y-88874272D01*
X145659324Y-88752416D01*
X145715409Y-88617017D01*
X145744000Y-88473278D01*
X145744000Y-88326722D01*
X145715409Y-88182983D01*
X145659324Y-88047584D01*
X145577903Y-87925728D01*
X145569000Y-87916825D01*
X145569000Y-87326722D01*
X146056000Y-87326722D01*
X146056000Y-87473278D01*
X146084591Y-87617017D01*
X146140676Y-87752416D01*
X146222097Y-87874272D01*
X146231001Y-87883176D01*
X146231000Y-88616825D01*
X146222097Y-88625728D01*
X146140676Y-88747584D01*
X146084591Y-88882983D01*
X146056000Y-89026722D01*
X146056000Y-89173278D01*
X146084591Y-89317017D01*
X146140676Y-89452416D01*
X146222097Y-89574272D01*
X146325728Y-89677903D01*
X146447584Y-89759324D01*
X146582983Y-89815409D01*
X146726722Y-89844000D01*
X146873278Y-89844000D01*
X147017017Y-89815409D01*
X147152416Y-89759324D01*
X147274272Y-89677903D01*
X147377903Y-89574272D01*
X147459324Y-89452416D01*
X147515409Y-89317017D01*
X147544000Y-89173278D01*
X147544000Y-89026722D01*
X147515409Y-88882983D01*
X147459324Y-88747584D01*
X147377903Y-88625728D01*
X147369000Y-88616825D01*
X147369000Y-87883175D01*
X147377903Y-87874272D01*
X147459324Y-87752416D01*
X147515409Y-87617017D01*
X147544000Y-87473278D01*
X147544000Y-87326722D01*
X147515409Y-87182983D01*
X147459324Y-87047584D01*
X147377903Y-86925728D01*
X147274272Y-86822097D01*
X147152416Y-86740676D01*
X147017017Y-86684591D01*
X146873278Y-86656000D01*
X146726722Y-86656000D01*
X146582983Y-86684591D01*
X146447584Y-86740676D01*
X146325728Y-86822097D01*
X146222097Y-86925728D01*
X146140676Y-87047584D01*
X146084591Y-87182983D01*
X146056000Y-87326722D01*
X145569000Y-87326722D01*
X145569000Y-85934926D01*
X145726859Y-85777067D01*
X145860264Y-85577413D01*
X145952154Y-85355569D01*
X145999000Y-85120061D01*
X145999000Y-84879939D01*
X146101000Y-84879939D01*
X146101000Y-85120061D01*
X146147846Y-85355569D01*
X146239736Y-85577413D01*
X146373141Y-85777067D01*
X146542933Y-85946859D01*
X146742587Y-86080264D01*
X146964431Y-86172154D01*
X147199939Y-86219000D01*
X147440061Y-86219000D01*
X147675569Y-86172154D01*
X147897413Y-86080264D01*
X148097067Y-85946859D01*
X148266859Y-85777067D01*
X148400264Y-85577413D01*
X148492154Y-85355569D01*
X148539000Y-85120061D01*
X148539000Y-84879939D01*
X148492154Y-84644431D01*
X148400264Y-84422587D01*
X148266859Y-84222933D01*
X148097067Y-84053141D01*
X147897413Y-83919736D01*
X147675569Y-83827846D01*
X147440061Y-83781000D01*
X147199939Y-83781000D01*
X146964431Y-83827846D01*
X146742587Y-83919736D01*
X146542933Y-84053141D01*
X146373141Y-84222933D01*
X146239736Y-84422587D01*
X146147846Y-84644431D01*
X146101000Y-84879939D01*
X145999000Y-84879939D01*
X145952154Y-84644431D01*
X145860264Y-84422587D01*
X145726859Y-84222933D01*
X145557067Y-84053141D01*
X145357413Y-83919736D01*
X145135569Y-83827846D01*
X144900061Y-83781000D01*
X144659939Y-83781000D01*
X144424431Y-83827846D01*
X144215971Y-83914192D01*
X144244000Y-83773278D01*
X144244000Y-83626722D01*
X144215409Y-83482983D01*
X144178550Y-83394000D01*
X148685000Y-83394000D01*
X148685000Y-87254007D01*
G37*
X148685000Y-87254007D02*
X148688154Y-87280755D01*
X148695521Y-87302061D01*
X148730442Y-87377986D01*
X148744484Y-87400968D01*
X148760080Y-87417246D01*
X150797072Y-89163240D01*
X150811739Y-89173927D01*
X150832015Y-89183783D01*
X150897094Y-89207857D01*
X150914557Y-89212790D01*
X150936992Y-89215000D01*
X155606000Y-89215000D01*
X155606000Y-91085000D01*
X154993455Y-91085000D01*
X154941893Y-91057439D01*
X154872337Y-91036340D01*
X154800000Y-91029215D01*
X151800000Y-91029215D01*
X151727663Y-91036340D01*
X151658107Y-91057439D01*
X151594003Y-91091704D01*
X151537815Y-91137815D01*
X151491704Y-91194003D01*
X151457439Y-91258107D01*
X151436340Y-91327663D01*
X151429215Y-91400000D01*
X151429215Y-93400000D01*
X151436340Y-93472337D01*
X151457439Y-93541893D01*
X151491704Y-93605997D01*
X151537815Y-93662185D01*
X151594003Y-93708296D01*
X151658107Y-93742561D01*
X151727663Y-93763660D01*
X151800000Y-93770785D01*
X151885000Y-93770785D01*
X151885000Y-93919923D01*
X151827287Y-93967287D01*
X151656210Y-94175744D01*
X151529089Y-94413571D01*
X151450808Y-94671629D01*
X151424376Y-94940000D01*
X151450808Y-95208371D01*
X151529089Y-95466429D01*
X151656210Y-95704256D01*
X151827287Y-95912713D01*
X151885000Y-95960077D01*
X151885000Y-96459923D01*
X151827287Y-96507287D01*
X151656210Y-96715744D01*
X151529089Y-96953571D01*
X151450808Y-97211629D01*
X151424376Y-97480000D01*
X151450808Y-97748371D01*
X151529089Y-98006429D01*
X151656210Y-98244256D01*
X151827287Y-98452713D01*
X151885000Y-98500077D01*
X151885000Y-98999923D01*
X151827287Y-99047287D01*
X151656210Y-99255744D01*
X151529089Y-99493571D01*
X151450808Y-99751629D01*
X151424376Y-100020000D01*
X151450808Y-100288371D01*
X151529089Y-100546429D01*
X151656210Y-100784256D01*
X151827287Y-100992713D01*
X151885000Y-101040077D01*
X151885000Y-101420882D01*
X151721662Y-101566515D01*
X151548563Y-101795978D01*
X151423556Y-102054802D01*
X151363637Y-102271754D01*
X151452585Y-102500000D01*
X151885000Y-102500000D01*
X151885000Y-102620000D01*
X151452585Y-102620000D01*
X151363637Y-102848246D01*
X151423556Y-103065198D01*
X151548563Y-103324022D01*
X151721662Y-103553485D01*
X151885000Y-103699118D01*
X151885000Y-104079923D01*
X151827287Y-104127287D01*
X151656210Y-104335744D01*
X151529089Y-104573571D01*
X151450808Y-104831629D01*
X151424376Y-105100000D01*
X151450808Y-105368371D01*
X151529089Y-105626429D01*
X151656210Y-105864256D01*
X151827287Y-106072713D01*
X151885000Y-106120077D01*
X151885000Y-106606000D01*
X137615000Y-106606000D01*
X137615000Y-99100000D01*
X137612790Y-99077565D01*
X137606246Y-99055992D01*
X137576957Y-98985281D01*
X137566330Y-98965398D01*
X137552028Y-98947971D01*
X137534601Y-98933670D01*
X137514719Y-98923043D01*
X137444008Y-98893754D01*
X137422435Y-98887210D01*
X137400000Y-98885000D01*
X132394000Y-98885000D01*
X132394000Y-97326722D01*
X138156000Y-97326722D01*
X138156000Y-97473278D01*
X138184591Y-97617017D01*
X138240676Y-97752416D01*
X138322097Y-97874272D01*
X138425728Y-97977903D01*
X138547584Y-98059324D01*
X138682983Y-98115409D01*
X138826722Y-98144000D01*
X138973278Y-98144000D01*
X139117017Y-98115409D01*
X139252416Y-98059324D01*
X139374272Y-97977903D01*
X139383175Y-97969000D01*
X141476757Y-97969000D01*
X141547097Y-98074272D01*
X141650728Y-98177903D01*
X141772584Y-98259324D01*
X141907983Y-98315409D01*
X142051722Y-98344000D01*
X142198278Y-98344000D01*
X142342017Y-98315409D01*
X142477416Y-98259324D01*
X142599272Y-98177903D01*
X142702903Y-98074272D01*
X142784324Y-97952416D01*
X142840409Y-97817017D01*
X142869000Y-97673278D01*
X142869000Y-97526722D01*
X142840409Y-97382983D01*
X142784324Y-97247584D01*
X142702903Y-97125728D01*
X142599272Y-97022097D01*
X142477416Y-96940676D01*
X142342017Y-96884591D01*
X142198278Y-96856000D01*
X142091816Y-96856000D01*
X142036543Y-96839233D01*
X141952952Y-96831000D01*
X141952942Y-96831000D01*
X141925000Y-96828248D01*
X141897058Y-96831000D01*
X139383175Y-96831000D01*
X139374272Y-96822097D01*
X139252416Y-96740676D01*
X139117017Y-96684591D01*
X138973278Y-96656000D01*
X138826722Y-96656000D01*
X138682983Y-96684591D01*
X138547584Y-96740676D01*
X138425728Y-96822097D01*
X138322097Y-96925728D01*
X138240676Y-97047584D01*
X138184591Y-97182983D01*
X138156000Y-97326722D01*
X132394000Y-97326722D01*
X132394000Y-93626722D01*
X143456000Y-93626722D01*
X143456000Y-93773278D01*
X143484591Y-93917017D01*
X143540676Y-94052416D01*
X143622097Y-94174272D01*
X143725728Y-94277903D01*
X143847584Y-94359324D01*
X143982983Y-94415409D01*
X144126722Y-94444000D01*
X144273278Y-94444000D01*
X144417017Y-94415409D01*
X144552416Y-94359324D01*
X144674272Y-94277903D01*
X144777903Y-94174272D01*
X144859324Y-94052416D01*
X144915409Y-93917017D01*
X144944000Y-93773278D01*
X144944000Y-93760688D01*
X145460684Y-93244005D01*
X145473275Y-93244005D01*
X145617014Y-93215414D01*
X145752413Y-93159329D01*
X145874269Y-93077908D01*
X145977900Y-92974277D01*
X146059321Y-92852421D01*
X146115406Y-92717022D01*
X146143997Y-92573283D01*
X146143997Y-92426727D01*
X146115406Y-92282988D01*
X146059321Y-92147589D01*
X145977900Y-92025733D01*
X145874269Y-91922102D01*
X145752413Y-91840681D01*
X145617014Y-91784596D01*
X145473275Y-91756005D01*
X145326719Y-91756005D01*
X145182980Y-91784596D01*
X145047581Y-91840681D01*
X144925725Y-91922102D01*
X144822094Y-92025733D01*
X144740673Y-92147589D01*
X144684588Y-92282988D01*
X144655997Y-92426727D01*
X144655997Y-92439318D01*
X144139316Y-92956000D01*
X144126722Y-92956000D01*
X143982983Y-92984591D01*
X143847584Y-93040676D01*
X143725728Y-93122097D01*
X143622097Y-93225728D01*
X143540676Y-93347584D01*
X143484591Y-93482983D01*
X143456000Y-93626722D01*
X132394000Y-93626722D01*
X132394000Y-90126722D01*
X135156000Y-90126722D01*
X135156000Y-90273278D01*
X135184591Y-90417017D01*
X135240676Y-90552416D01*
X135322097Y-90674272D01*
X135425728Y-90777903D01*
X135547584Y-90859324D01*
X135682983Y-90915409D01*
X135826722Y-90944000D01*
X135973278Y-90944000D01*
X136117017Y-90915409D01*
X136252416Y-90859324D01*
X136374272Y-90777903D01*
X136433175Y-90719000D01*
X137887234Y-90719000D01*
X137947584Y-90759324D01*
X138082983Y-90815409D01*
X138226722Y-90844000D01*
X138373278Y-90844000D01*
X138517017Y-90815409D01*
X138652416Y-90759324D01*
X138774272Y-90677903D01*
X138877903Y-90574272D01*
X138959324Y-90452416D01*
X139015409Y-90317017D01*
X139044000Y-90173278D01*
X139044000Y-90026722D01*
X139015409Y-89882983D01*
X138959324Y-89747584D01*
X138877903Y-89625728D01*
X138774272Y-89522097D01*
X138652416Y-89440676D01*
X138517017Y-89384591D01*
X138373278Y-89356000D01*
X138226722Y-89356000D01*
X138082983Y-89384591D01*
X137947584Y-89440676D01*
X137825728Y-89522097D01*
X137722097Y-89625728D01*
X137685166Y-89681000D01*
X136433175Y-89681000D01*
X136374272Y-89622097D01*
X136252416Y-89540676D01*
X136117017Y-89484591D01*
X135973278Y-89456000D01*
X135826722Y-89456000D01*
X135682983Y-89484591D01*
X135547584Y-89540676D01*
X135425728Y-89622097D01*
X135322097Y-89725728D01*
X135240676Y-89847584D01*
X135184591Y-89982983D01*
X135156000Y-90126722D01*
X132394000Y-90126722D01*
X132394000Y-86639732D01*
X132440676Y-86752416D01*
X132522097Y-86874272D01*
X132625728Y-86977903D01*
X132747584Y-87059324D01*
X132882983Y-87115409D01*
X133026722Y-87144000D01*
X133173278Y-87144000D01*
X133317017Y-87115409D01*
X133452416Y-87059324D01*
X133574272Y-86977903D01*
X133677903Y-86874272D01*
X133759324Y-86752416D01*
X133815409Y-86617017D01*
X133844000Y-86473278D01*
X133844000Y-86326722D01*
X133822928Y-86220785D01*
X135470000Y-86220785D01*
X135542337Y-86213660D01*
X135611893Y-86192561D01*
X135675997Y-86158296D01*
X135732185Y-86112185D01*
X135778296Y-86055997D01*
X135812561Y-85991893D01*
X135833660Y-85922337D01*
X135840785Y-85850000D01*
X135840785Y-84169000D01*
X136267074Y-84169000D01*
X136213141Y-84222933D01*
X136079736Y-84422587D01*
X135987846Y-84644431D01*
X135941000Y-84879939D01*
X135941000Y-85120061D01*
X135987846Y-85355569D01*
X136079736Y-85577413D01*
X136213141Y-85777067D01*
X136382933Y-85946859D01*
X136582587Y-86080264D01*
X136804431Y-86172154D01*
X137039939Y-86219000D01*
X137280061Y-86219000D01*
X137515569Y-86172154D01*
X137737413Y-86080264D01*
X137937067Y-85946859D01*
X138106859Y-85777067D01*
X138240264Y-85577413D01*
X138332154Y-85355569D01*
X138379000Y-85120061D01*
X138379000Y-84879939D01*
X138332154Y-84644431D01*
X138240264Y-84422587D01*
X138106859Y-84222933D01*
X138052926Y-84169000D01*
X138064314Y-84169000D01*
X138531331Y-84636017D01*
X138527846Y-84644431D01*
X138481000Y-84879939D01*
X138481000Y-85120061D01*
X138527846Y-85355569D01*
X138619736Y-85577413D01*
X138753141Y-85777067D01*
X138922933Y-85946859D01*
X139122587Y-86080264D01*
X139344431Y-86172154D01*
X139579939Y-86219000D01*
X139820061Y-86219000D01*
X140055569Y-86172154D01*
X140277413Y-86080264D01*
X140477067Y-85946859D01*
X140646859Y-85777067D01*
X140780264Y-85577413D01*
X140872154Y-85355569D01*
X140890217Y-85264759D01*
X140951926Y-85264759D01*
X141028328Y-85510963D01*
X141151294Y-85737530D01*
X141316098Y-85935755D01*
X141516407Y-86098019D01*
X141744524Y-86218087D01*
X141975242Y-86288071D01*
X142180000Y-86197247D01*
X142180000Y-85060000D01*
X142300000Y-85060000D01*
X142300000Y-86197247D01*
X142504758Y-86288071D01*
X142735476Y-86218087D01*
X142963593Y-86098019D01*
X143163902Y-85935755D01*
X143328706Y-85737530D01*
X143451672Y-85510963D01*
X143528074Y-85264759D01*
X143437383Y-85060000D01*
X142300000Y-85060000D01*
X142180000Y-85060000D01*
X141042617Y-85060000D01*
X140951926Y-85264759D01*
X140890217Y-85264759D01*
X140919000Y-85120061D01*
X140919000Y-84879939D01*
X140872154Y-84644431D01*
X140868669Y-84636018D01*
X141043375Y-84461312D01*
X141028328Y-84489037D01*
X140951926Y-84735241D01*
X141042617Y-84940000D01*
X142180000Y-84940000D01*
X142180000Y-84920000D01*
X142300000Y-84920000D01*
X142300000Y-84940000D01*
X143437383Y-84940000D01*
X143528074Y-84735241D01*
X143451672Y-84489037D01*
X143427229Y-84444000D01*
X143573278Y-84444000D01*
X143702619Y-84418273D01*
X143699736Y-84422587D01*
X143607846Y-84644431D01*
X143561000Y-84879939D01*
X143561000Y-85120061D01*
X143607846Y-85355569D01*
X143699736Y-85577413D01*
X143833141Y-85777067D01*
X144002933Y-85946859D01*
X144202587Y-86080264D01*
X144424431Y-86172154D01*
X144431001Y-86173461D01*
X144431000Y-87916825D01*
X144422097Y-87925728D01*
X144340676Y-88047584D01*
X144284591Y-88182983D01*
X144256000Y-88326722D01*
X144256000Y-88473278D01*
X144284591Y-88617017D01*
X144340676Y-88752416D01*
X144422097Y-88874272D01*
X144525728Y-88977903D01*
X144647584Y-89059324D01*
X144782983Y-89115409D01*
X144926722Y-89144000D01*
X145073278Y-89144000D01*
X145217017Y-89115409D01*
X145352416Y-89059324D01*
X145474272Y-88977903D01*
X145577903Y-88874272D01*
X145659324Y-88752416D01*
X145715409Y-88617017D01*
X145744000Y-88473278D01*
X145744000Y-88326722D01*
X145715409Y-88182983D01*
X145659324Y-88047584D01*
X145577903Y-87925728D01*
X145569000Y-87916825D01*
X145569000Y-87326722D01*
X146056000Y-87326722D01*
X146056000Y-87473278D01*
X146084591Y-87617017D01*
X146140676Y-87752416D01*
X146222097Y-87874272D01*
X146231001Y-87883176D01*
X146231000Y-88616825D01*
X146222097Y-88625728D01*
X146140676Y-88747584D01*
X146084591Y-88882983D01*
X146056000Y-89026722D01*
X146056000Y-89173278D01*
X146084591Y-89317017D01*
X146140676Y-89452416D01*
X146222097Y-89574272D01*
X146325728Y-89677903D01*
X146447584Y-89759324D01*
X146582983Y-89815409D01*
X146726722Y-89844000D01*
X146873278Y-89844000D01*
X147017017Y-89815409D01*
X147152416Y-89759324D01*
X147274272Y-89677903D01*
X147377903Y-89574272D01*
X147459324Y-89452416D01*
X147515409Y-89317017D01*
X147544000Y-89173278D01*
X147544000Y-89026722D01*
X147515409Y-88882983D01*
X147459324Y-88747584D01*
X147377903Y-88625728D01*
X147369000Y-88616825D01*
X147369000Y-87883175D01*
X147377903Y-87874272D01*
X147459324Y-87752416D01*
X147515409Y-87617017D01*
X147544000Y-87473278D01*
X147544000Y-87326722D01*
X147515409Y-87182983D01*
X147459324Y-87047584D01*
X147377903Y-86925728D01*
X147274272Y-86822097D01*
X147152416Y-86740676D01*
X147017017Y-86684591D01*
X146873278Y-86656000D01*
X146726722Y-86656000D01*
X146582983Y-86684591D01*
X146447584Y-86740676D01*
X146325728Y-86822097D01*
X146222097Y-86925728D01*
X146140676Y-87047584D01*
X146084591Y-87182983D01*
X146056000Y-87326722D01*
X145569000Y-87326722D01*
X145569000Y-85934926D01*
X145726859Y-85777067D01*
X145860264Y-85577413D01*
X145952154Y-85355569D01*
X145999000Y-85120061D01*
X145999000Y-84879939D01*
X146101000Y-84879939D01*
X146101000Y-85120061D01*
X146147846Y-85355569D01*
X146239736Y-85577413D01*
X146373141Y-85777067D01*
X146542933Y-85946859D01*
X146742587Y-86080264D01*
X146964431Y-86172154D01*
X147199939Y-86219000D01*
X147440061Y-86219000D01*
X147675569Y-86172154D01*
X147897413Y-86080264D01*
X148097067Y-85946859D01*
X148266859Y-85777067D01*
X148400264Y-85577413D01*
X148492154Y-85355569D01*
X148539000Y-85120061D01*
X148539000Y-84879939D01*
X148492154Y-84644431D01*
X148400264Y-84422587D01*
X148266859Y-84222933D01*
X148097067Y-84053141D01*
X147897413Y-83919736D01*
X147675569Y-83827846D01*
X147440061Y-83781000D01*
X147199939Y-83781000D01*
X146964431Y-83827846D01*
X146742587Y-83919736D01*
X146542933Y-84053141D01*
X146373141Y-84222933D01*
X146239736Y-84422587D01*
X146147846Y-84644431D01*
X146101000Y-84879939D01*
X145999000Y-84879939D01*
X145952154Y-84644431D01*
X145860264Y-84422587D01*
X145726859Y-84222933D01*
X145557067Y-84053141D01*
X145357413Y-83919736D01*
X145135569Y-83827846D01*
X144900061Y-83781000D01*
X144659939Y-83781000D01*
X144424431Y-83827846D01*
X144215971Y-83914192D01*
X144244000Y-83773278D01*
X144244000Y-83626722D01*
X144215409Y-83482983D01*
X144178550Y-83394000D01*
X148685000Y-83394000D01*
X148685000Y-87254007D01*
%TD*%
M02*
