%TF.GenerationSoftware,KiCad,Pcbnew,(5.1.6)-1*%
%TF.CreationDate,2021-08-06T10:58:56-04:00*%
%TF.ProjectId,RemoteTemp - MSP430 - RS422,52656d6f-7465-4546-956d-70202d204d53,rev?*%
%TF.SameCoordinates,Original*%
%TF.FileFunction,Legend,Top*%
%TF.FilePolarity,Positive*%
%FSLAX46Y46*%
G04 Gerber Fmt 4.6, Leading zero omitted, Abs format (unit mm)*
G04 Created by KiCad (PCBNEW (5.1.6)-1) date 2021-08-06 10:58:56*
%MOMM*%
%LPD*%
G01*
G04 APERTURE LIST*
%ADD10C,0.500000*%
%ADD11C,0.300000*%
%ADD12C,0.180000*%
%ADD13C,0.280000*%
%ADD14C,0.120000*%
%ADD15C,0.100000*%
%ADD16C,0.150000*%
G04 APERTURE END LIST*
D10*
X151300000Y-92400000D02*
G75*
G03*
X151300000Y-92400000I-200000J0D01*
G01*
X155700000Y-92400000D02*
G75*
G03*
X155700000Y-92400000I-200000J0D01*
G01*
D11*
X135441421Y-89900000D02*
G75*
G03*
X135441421Y-89900000I-141421J0D01*
G01*
X139541421Y-97100000D02*
G75*
G03*
X139541421Y-97100000I-141421J0D01*
G01*
X140141421Y-94800000D02*
G75*
G03*
X140141421Y-94800000I-141421J0D01*
G01*
X147641421Y-95600000D02*
G75*
G03*
X147641421Y-95600000I-141421J0D01*
G01*
D12*
X151019047Y-106271428D02*
X151780952Y-106271428D01*
X151400000Y-106652380D02*
X151400000Y-105890476D01*
D13*
X133411904Y-106388095D02*
X133288095Y-106326190D01*
X133226190Y-106264285D01*
X133164285Y-106140476D01*
X133164285Y-105769047D01*
X133226190Y-105645238D01*
X133288095Y-105583333D01*
X133411904Y-105521428D01*
X133597619Y-105521428D01*
X133721428Y-105583333D01*
X133783333Y-105645238D01*
X133845238Y-105769047D01*
X133845238Y-106140476D01*
X133783333Y-106264285D01*
X133721428Y-106326190D01*
X133597619Y-106388095D01*
X133411904Y-106388095D01*
X134340476Y-106326190D02*
X134464285Y-106388095D01*
X134711904Y-106388095D01*
X134835714Y-106326190D01*
X134897619Y-106202380D01*
X134897619Y-106140476D01*
X134835714Y-106016666D01*
X134711904Y-105954761D01*
X134526190Y-105954761D01*
X134402380Y-105892857D01*
X134340476Y-105769047D01*
X134340476Y-105707142D01*
X134402380Y-105583333D01*
X134526190Y-105521428D01*
X134711904Y-105521428D01*
X134835714Y-105583333D01*
X135454761Y-106388095D02*
X135454761Y-105088095D01*
X136011904Y-106388095D02*
X136011904Y-105707142D01*
X135950000Y-105583333D01*
X135826190Y-105521428D01*
X135640476Y-105521428D01*
X135516666Y-105583333D01*
X135454761Y-105645238D01*
X136507142Y-105521428D02*
X136754761Y-106388095D01*
X137002380Y-105769047D01*
X137250000Y-106388095D01*
X137497619Y-105521428D01*
D11*
X147241421Y-97200000D02*
G75*
G03*
X147241421Y-97200000I-141421J0D01*
G01*
D14*
X145600000Y-83900000D02*
X145700000Y-83800000D01*
X145500000Y-83800000D02*
X145600000Y-83900000D01*
X145600000Y-84000000D02*
X145500000Y-83800000D01*
X145800000Y-83800000D02*
X145600000Y-84000000D01*
X145200000Y-83700000D02*
X145800000Y-83800000D01*
X145200000Y-83700000D02*
X145600000Y-84100000D01*
X145600000Y-83700000D02*
X145600000Y-83300000D01*
X146000000Y-83700000D02*
X145600000Y-84100000D01*
X145300000Y-83700000D02*
X146000000Y-83700000D01*
X145600000Y-84100000D02*
X145300000Y-83700000D01*
X148100000Y-83500000D02*
X148200000Y-83400000D01*
X148500000Y-83500000D02*
X148100000Y-83500000D01*
X148400000Y-83500000D02*
X148500000Y-83500000D01*
X148400000Y-83400000D02*
X148400000Y-83500000D01*
X148700000Y-83600000D02*
X148300000Y-83200000D01*
X148600000Y-83600000D02*
X148700000Y-83600000D01*
X148600000Y-83600000D02*
X148300000Y-83200000D01*
X147900000Y-83600000D02*
X148600000Y-83600000D01*
X148300000Y-83200000D02*
X147900000Y-83600000D01*
X148300000Y-84000000D02*
X148300000Y-83200000D01*
D12*
X155019047Y-105071428D02*
X155780952Y-105071428D01*
X155400000Y-105452380D02*
X155400000Y-104690476D01*
X141819047Y-83371428D02*
X142580952Y-83371428D01*
X139319047Y-83471428D02*
X140080952Y-83471428D01*
X139700000Y-83852380D02*
X139700000Y-83090476D01*
X132361904Y-86028571D02*
X132361904Y-85571428D01*
X133161904Y-85800000D02*
X132361904Y-85800000D01*
X133085714Y-84847619D02*
X133123809Y-84885714D01*
X133161904Y-85000000D01*
X133161904Y-85076190D01*
X133123809Y-85190476D01*
X133047619Y-85266666D01*
X132971428Y-85304761D01*
X132819047Y-85342857D01*
X132704761Y-85342857D01*
X132552380Y-85304761D01*
X132476190Y-85266666D01*
X132400000Y-85190476D01*
X132361904Y-85076190D01*
X132361904Y-85000000D01*
X132400000Y-84885714D01*
X132438095Y-84847619D01*
X133161904Y-84504761D02*
X132361904Y-84504761D01*
X133161904Y-84047619D02*
X132704761Y-84390476D01*
X132361904Y-84047619D02*
X132819047Y-84504761D01*
D11*
X134741421Y-87100000D02*
G75*
G03*
X134741421Y-87100000I-141421J0D01*
G01*
D14*
%TO.C,C5*%
X138624721Y-102040000D02*
X138950279Y-102040000D01*
X138624721Y-103060000D02*
X138950279Y-103060000D01*
%TO.C,C6*%
X135575279Y-98710000D02*
X135249721Y-98710000D01*
X135575279Y-97690000D02*
X135249721Y-97690000D01*
%TO.C,C8*%
X152824721Y-90210000D02*
X153150279Y-90210000D01*
X152824721Y-89190000D02*
X153150279Y-89190000D01*
%TO.C,D1*%
X145050000Y-105050000D02*
X145050000Y-103200000D01*
X146250000Y-105050000D02*
X146250000Y-103200000D01*
X146250000Y-103200000D02*
X145050000Y-103200000D01*
%TO.C,U1*%
X147190000Y-92200000D02*
X147190000Y-95125000D01*
X147190000Y-92200000D02*
X147190000Y-90700000D01*
X150410000Y-92200000D02*
X150410000Y-93700000D01*
X150410000Y-92200000D02*
X150410000Y-90700000D01*
%TO.C,U3*%
X140560000Y-100200000D02*
X140560000Y-98400000D01*
X137340000Y-98400000D02*
X137340000Y-100850000D01*
%TO.C,C11*%
X148410000Y-104425279D02*
X148410000Y-104099721D01*
X147390000Y-104425279D02*
X147390000Y-104099721D01*
%TO.C,C12*%
X137875279Y-95590000D02*
X137549721Y-95590000D01*
X137875279Y-96610000D02*
X137549721Y-96610000D01*
D15*
%TO.C,D3*%
X137575000Y-87675000D02*
X137575000Y-87575000D01*
X137575000Y-87575000D02*
X137375000Y-87575000D01*
X137575000Y-89275000D02*
X137575000Y-89375000D01*
X137575000Y-89375000D02*
X137375000Y-89375000D01*
X135775000Y-89275000D02*
X135575000Y-89275000D01*
X135775000Y-89275000D02*
X135775000Y-89375000D01*
X135775000Y-89375000D02*
X135975000Y-89375000D01*
X135775000Y-87675000D02*
X135775000Y-87575000D01*
X135775000Y-87575000D02*
X135975000Y-87575000D01*
D16*
%TO.C,U2*%
X146475000Y-95375000D02*
X146475000Y-90925000D01*
X139575000Y-96900000D02*
X139575000Y-90925000D01*
D14*
%TO.C,C14*%
X145874721Y-101390000D02*
X146200279Y-101390000D01*
X145874721Y-102410000D02*
X146200279Y-102410000D01*
%TO.C,Q1*%
X141070000Y-103660000D02*
X142000000Y-103660000D01*
X144230000Y-103660000D02*
X143300000Y-103660000D01*
X144230000Y-103660000D02*
X144230000Y-101500000D01*
X141070000Y-103660000D02*
X141070000Y-102200000D01*
%TO.C,J1*%
X151970000Y-91070000D02*
X153300000Y-91070000D01*
X151970000Y-92400000D02*
X151970000Y-91070000D01*
X151970000Y-93670000D02*
X154630000Y-93670000D01*
X154630000Y-93670000D02*
X154630000Y-106430000D01*
X151970000Y-93670000D02*
X151970000Y-106430000D01*
X151970000Y-106430000D02*
X154630000Y-106430000D01*
%TO.C,R3*%
X141603733Y-106160000D02*
X141946267Y-106160000D01*
X141603733Y-105140000D02*
X141946267Y-105140000D01*
%TO.C,U4*%
X150100000Y-97240000D02*
X147650000Y-97240000D01*
X148300000Y-100460000D02*
X150100000Y-100460000D01*
D15*
%TO.C,U5*%
X136025000Y-93800000D02*
X136025000Y-93500000D01*
X136400000Y-93800000D02*
X136025000Y-93800000D01*
X136025000Y-90500000D02*
X136475000Y-90500000D01*
X136025000Y-90800000D02*
X136025000Y-90500000D01*
X136025000Y-90725000D02*
X136025000Y-90850000D01*
X137675000Y-90500000D02*
X137675000Y-90850000D01*
X137200000Y-90500000D02*
X137675000Y-90500000D01*
X137675000Y-93475000D02*
X138450000Y-93475000D01*
X137675000Y-93525000D02*
X137675000Y-93475000D01*
X137300000Y-93800000D02*
X137675000Y-93525000D01*
X137025000Y-93800000D02*
X137300000Y-93800000D01*
D14*
%TO.C,D2*%
X148950000Y-105700000D02*
X148950000Y-102550000D01*
X150650000Y-105700000D02*
X150650000Y-102550000D01*
X148950000Y-105700000D02*
X150650000Y-105700000D01*
%TO.C,J2*%
X133290000Y-86330000D02*
X133290000Y-85000000D01*
X134620000Y-86330000D02*
X133290000Y-86330000D01*
X135890000Y-86330000D02*
X135890000Y-83670000D01*
X135890000Y-83670000D02*
X148650000Y-83670000D01*
X135890000Y-86330000D02*
X148650000Y-86330000D01*
X148650000Y-86330000D02*
X148650000Y-83670000D01*
%TO.C,U1*%
D16*
X148038095Y-91652380D02*
X148038095Y-92461904D01*
X148085714Y-92557142D01*
X148133333Y-92604761D01*
X148228571Y-92652380D01*
X148419047Y-92652380D01*
X148514285Y-92604761D01*
X148561904Y-92557142D01*
X148609523Y-92461904D01*
X148609523Y-91652380D01*
X149609523Y-92652380D02*
X149038095Y-92652380D01*
X149323809Y-92652380D02*
X149323809Y-91652380D01*
X149228571Y-91795238D01*
X149133333Y-91890476D01*
X149038095Y-91938095D01*
%TO.C,U3*%
X135238095Y-99252380D02*
X135238095Y-100061904D01*
X135285714Y-100157142D01*
X135333333Y-100204761D01*
X135428571Y-100252380D01*
X135619047Y-100252380D01*
X135714285Y-100204761D01*
X135761904Y-100157142D01*
X135809523Y-100061904D01*
X135809523Y-99252380D01*
X136190476Y-99252380D02*
X136809523Y-99252380D01*
X136476190Y-99633333D01*
X136619047Y-99633333D01*
X136714285Y-99680952D01*
X136761904Y-99728571D01*
X136809523Y-99823809D01*
X136809523Y-100061904D01*
X136761904Y-100157142D01*
X136714285Y-100204761D01*
X136619047Y-100252380D01*
X136333333Y-100252380D01*
X136238095Y-100204761D01*
X136190476Y-100157142D01*
%TO.C,U2*%
X140538095Y-93552380D02*
X140538095Y-94361904D01*
X140585714Y-94457142D01*
X140633333Y-94504761D01*
X140728571Y-94552380D01*
X140919047Y-94552380D01*
X141014285Y-94504761D01*
X141061904Y-94457142D01*
X141109523Y-94361904D01*
X141109523Y-93552380D01*
X141538095Y-93647619D02*
X141585714Y-93600000D01*
X141680952Y-93552380D01*
X141919047Y-93552380D01*
X142014285Y-93600000D01*
X142061904Y-93647619D01*
X142109523Y-93742857D01*
X142109523Y-93838095D01*
X142061904Y-93980952D01*
X141490476Y-94552380D01*
X142109523Y-94552380D01*
%TO.C,U4*%
X149538095Y-95852380D02*
X149538095Y-96661904D01*
X149585714Y-96757142D01*
X149633333Y-96804761D01*
X149728571Y-96852380D01*
X149919047Y-96852380D01*
X150014285Y-96804761D01*
X150061904Y-96757142D01*
X150109523Y-96661904D01*
X150109523Y-95852380D01*
X151014285Y-96185714D02*
X151014285Y-96852380D01*
X150776190Y-95804761D02*
X150538095Y-96519047D01*
X151157142Y-96519047D01*
%TO.C,U5*%
X133338095Y-90652380D02*
X133338095Y-91461904D01*
X133385714Y-91557142D01*
X133433333Y-91604761D01*
X133528571Y-91652380D01*
X133719047Y-91652380D01*
X133814285Y-91604761D01*
X133861904Y-91557142D01*
X133909523Y-91461904D01*
X133909523Y-90652380D01*
X134861904Y-90652380D02*
X134385714Y-90652380D01*
X134338095Y-91128571D01*
X134385714Y-91080952D01*
X134480952Y-91033333D01*
X134719047Y-91033333D01*
X134814285Y-91080952D01*
X134861904Y-91128571D01*
X134909523Y-91223809D01*
X134909523Y-91461904D01*
X134861904Y-91557142D01*
X134814285Y-91604761D01*
X134719047Y-91652380D01*
X134480952Y-91652380D01*
X134385714Y-91604761D01*
X134338095Y-91557142D01*
%TD*%
M02*
