M48
; DRILL file {KiCad (5.1.6)-1} date 08/06/21 10:59:35
; FORMAT={-:-/ absolute / inch / decimal}
; #@! TF.CreationDate,2021-08-06T10:59:35-04:00
; #@! TF.GenerationSoftware,Kicad,Pcbnew,(5.1.6)-1
FMAT,2
INCH
T1C0.0138
T2C0.0394
T3C0.0984
%
G90
G05
T1
X5.2244Y-3.4803
X5.2244Y-3.5276
X5.2244Y-3.5748
X5.2244Y-3.6929
X5.2244Y-3.7717
X5.2244Y-3.8268
X5.2402Y-3.4016
X5.2441Y-3.6339
X5.248Y-3.8661
X5.252Y-3.7323
X5.2717Y-3.6929
X5.2717Y-3.7717
X5.2874Y-3.6339
X5.2913Y-3.7323
X5.2992Y-3.815
X5.311Y-3.6929
X5.311Y-3.7717
X5.3307Y-3.7323
X5.3504Y-3.5512
X5.3504Y-3.6929
X5.3504Y-3.7717
X5.3701Y-3.7323
X5.4449Y-3.5472
X5.4528Y-4.1693
X5.4685Y-3.8346
X5.4705Y-3.9055
X5.4843Y-3.5276
X5.4941Y-4.0846
X5.5276Y-3.6142
X5.5433Y-4.0709
X5.5472Y-3.9016
X5.5669Y-3.6417
X5.5709Y-3.9449
X5.5955Y-3.8425
X5.6024Y-3.6102
X5.6496Y-3.2953
X5.6575Y-3.3976
X5.6732Y-4.1614
X5.6772Y-3.689
X5.6969Y-3.9606
X5.7087Y-3.4803
X5.7244Y-3.6417
X5.7244Y-4.1811
X5.7283Y-3.8937
X5.748Y-3.3976
X5.752Y-3.9685
X5.7717Y-4.1811
X5.7795Y-3.4409
X5.7795Y-3.5079
X5.7795Y-4.0591
X5.8228Y-4.1811
X5.8346Y-3.9843
X5.8346Y-4.0276
X5.874Y-4.1811
X5.8937Y-3.4882
X5.8937Y-3.9843
X5.9252Y-4.1811
X5.937Y-3.5394
X5.9488Y-3.9843
X5.9488Y-4.0866
X6.0827Y-3.5709
X6.1024Y-3.5315
T2
X5.3Y-3.3465
X5.4Y-3.3465
X5.5Y-3.3465
X5.6Y-3.3465
X5.7Y-3.3465
X5.8Y-3.3465
X6.0354Y-3.6378
X6.0354Y-3.7378
X6.0354Y-3.8378
X6.0354Y-3.9378
X6.0354Y-4.0378
X6.0354Y-4.1378
T3
X5.9843Y-3.3858
T0
M30
