%TF.GenerationSoftware,KiCad,Pcbnew,(5.1.6)-1*%
%TF.CreationDate,2021-08-06T10:58:56-04:00*%
%TF.ProjectId,RemoteTemp - MSP430 - RS422,52656d6f-7465-4546-956d-70202d204d53,rev?*%
%TF.SameCoordinates,Original*%
%TF.FileFunction,OtherDrawing,Comment*%
%FSLAX46Y46*%
G04 Gerber Fmt 4.6, Leading zero omitted, Abs format (unit mm)*
G04 Created by KiCad (PCBNEW (5.1.6)-1) date 2021-08-06 10:58:56*
%MOMM*%
%LPD*%
G01*
G04 APERTURE LIST*
%ADD10C,0.150000*%
G04 APERTURE END LIST*
D10*
X128000000Y-103000000D02*
X134000000Y-103000000D01*
X122152380Y-88857142D02*
X122200000Y-88904761D01*
X122247619Y-89000000D01*
X122247619Y-89238095D01*
X122200000Y-89333333D01*
X122152380Y-89380952D01*
X122057142Y-89428571D01*
X121961904Y-89428571D01*
X121819047Y-89380952D01*
X121247619Y-88809523D01*
X121247619Y-89428571D01*
X122247619Y-90047619D02*
X122247619Y-90142857D01*
X122200000Y-90238095D01*
X122152380Y-90285714D01*
X122057142Y-90333333D01*
X121866666Y-90380952D01*
X121628571Y-90380952D01*
X121438095Y-90333333D01*
X121342857Y-90285714D01*
X121295238Y-90238095D01*
X121247619Y-90142857D01*
X121247619Y-90047619D01*
X121295238Y-89952380D01*
X121342857Y-89904761D01*
X121438095Y-89857142D01*
X121628571Y-89809523D01*
X121866666Y-89809523D01*
X122057142Y-89857142D01*
X122152380Y-89904761D01*
X122200000Y-89952380D01*
X122247619Y-90047619D01*
X121342857Y-90809523D02*
X121295238Y-90857142D01*
X121247619Y-90809523D01*
X121295238Y-90761904D01*
X121342857Y-90809523D01*
X121247619Y-90809523D01*
X122247619Y-91476190D02*
X122247619Y-91571428D01*
X122200000Y-91666666D01*
X122152380Y-91714285D01*
X122057142Y-91761904D01*
X121866666Y-91809523D01*
X121628571Y-91809523D01*
X121438095Y-91761904D01*
X121342857Y-91714285D01*
X121295238Y-91666666D01*
X121247619Y-91571428D01*
X121247619Y-91476190D01*
X121295238Y-91380952D01*
X121342857Y-91333333D01*
X121438095Y-91285714D01*
X121628571Y-91238095D01*
X121866666Y-91238095D01*
X122057142Y-91285714D01*
X122152380Y-91333333D01*
X122200000Y-91380952D01*
X122247619Y-91476190D01*
X122247619Y-92428571D02*
X122247619Y-92523809D01*
X122200000Y-92619047D01*
X122152380Y-92666666D01*
X122057142Y-92714285D01*
X121866666Y-92761904D01*
X121628571Y-92761904D01*
X121438095Y-92714285D01*
X121342857Y-92666666D01*
X121295238Y-92619047D01*
X121247619Y-92523809D01*
X121247619Y-92428571D01*
X121295238Y-92333333D01*
X121342857Y-92285714D01*
X121438095Y-92238095D01*
X121628571Y-92190476D01*
X121866666Y-92190476D01*
X122057142Y-92238095D01*
X122152380Y-92285714D01*
X122200000Y-92333333D01*
X122247619Y-92428571D01*
X122247619Y-93380952D02*
X122247619Y-93476190D01*
X122200000Y-93571428D01*
X122152380Y-93619047D01*
X122057142Y-93666666D01*
X121866666Y-93714285D01*
X121628571Y-93714285D01*
X121438095Y-93666666D01*
X121342857Y-93619047D01*
X121295238Y-93571428D01*
X121247619Y-93476190D01*
X121247619Y-93380952D01*
X121295238Y-93285714D01*
X121342857Y-93238095D01*
X121438095Y-93190476D01*
X121628571Y-93142857D01*
X121866666Y-93142857D01*
X122057142Y-93190476D01*
X122152380Y-93238095D01*
X122200000Y-93285714D01*
X122247619Y-93380952D01*
X121247619Y-94904761D02*
X121914285Y-94904761D01*
X121819047Y-94904761D02*
X121866666Y-94952380D01*
X121914285Y-95047619D01*
X121914285Y-95190476D01*
X121866666Y-95285714D01*
X121771428Y-95333333D01*
X121247619Y-95333333D01*
X121771428Y-95333333D02*
X121866666Y-95380952D01*
X121914285Y-95476190D01*
X121914285Y-95619047D01*
X121866666Y-95714285D01*
X121771428Y-95761904D01*
X121247619Y-95761904D01*
X121247619Y-96238095D02*
X121914285Y-96238095D01*
X121819047Y-96238095D02*
X121866666Y-96285714D01*
X121914285Y-96380952D01*
X121914285Y-96523809D01*
X121866666Y-96619047D01*
X121771428Y-96666666D01*
X121247619Y-96666666D01*
X121771428Y-96666666D02*
X121866666Y-96714285D01*
X121914285Y-96809523D01*
X121914285Y-96952380D01*
X121866666Y-97047619D01*
X121771428Y-97095238D01*
X121247619Y-97095238D01*
X123000000Y-83000000D02*
X123000000Y-103000000D01*
X128000000Y-83000000D02*
X122413579Y-83000000D01*
X128000000Y-103000000D02*
X122413579Y-103000000D01*
X123000000Y-103000000D02*
X122413579Y-101873496D01*
X123000000Y-103000000D02*
X123586421Y-101873496D01*
X123000000Y-83000000D02*
X122413579Y-84126504D01*
X123000000Y-83000000D02*
X123586421Y-84126504D01*
X151000000Y-86000000D02*
X152000000Y-86000000D01*
X149000000Y-86000000D02*
X150000000Y-86000000D01*
X147000000Y-86000000D02*
X148000000Y-86000000D01*
X145000000Y-86000000D02*
X146000000Y-86000000D01*
X143000000Y-86000000D02*
X144000000Y-86000000D01*
X141000000Y-86000000D02*
X142000000Y-86000000D01*
X139000000Y-86000000D02*
X140000000Y-86000000D01*
X137000000Y-86000000D02*
X138000000Y-86000000D01*
X135000000Y-86000000D02*
X136000000Y-86000000D01*
X133000000Y-86000000D02*
X134000000Y-86000000D01*
X126152380Y-90714285D02*
X126152380Y-90095238D01*
X126533333Y-90428571D01*
X126533333Y-90285714D01*
X126580952Y-90190476D01*
X126628571Y-90142857D01*
X126723809Y-90095238D01*
X126961904Y-90095238D01*
X127057142Y-90142857D01*
X127104761Y-90190476D01*
X127152380Y-90285714D01*
X127152380Y-90571428D01*
X127104761Y-90666666D01*
X127057142Y-90714285D01*
X127057142Y-89666666D02*
X127104761Y-89619047D01*
X127152380Y-89666666D01*
X127104761Y-89714285D01*
X127057142Y-89666666D01*
X127152380Y-89666666D01*
X126152380Y-89000000D02*
X126152380Y-88904761D01*
X126200000Y-88809523D01*
X126247619Y-88761904D01*
X126342857Y-88714285D01*
X126533333Y-88666666D01*
X126771428Y-88666666D01*
X126961904Y-88714285D01*
X127057142Y-88761904D01*
X127104761Y-88809523D01*
X127152380Y-88904761D01*
X127152380Y-89000000D01*
X127104761Y-89095238D01*
X127057142Y-89142857D01*
X126961904Y-89190476D01*
X126771428Y-89238095D01*
X126533333Y-89238095D01*
X126342857Y-89190476D01*
X126247619Y-89142857D01*
X126200000Y-89095238D01*
X126152380Y-89000000D01*
X126152380Y-88047619D02*
X126152380Y-87952380D01*
X126200000Y-87857142D01*
X126247619Y-87809523D01*
X126342857Y-87761904D01*
X126533333Y-87714285D01*
X126771428Y-87714285D01*
X126961904Y-87761904D01*
X127057142Y-87809523D01*
X127104761Y-87857142D01*
X127152380Y-87952380D01*
X127152380Y-88047619D01*
X127104761Y-88142857D01*
X127057142Y-88190476D01*
X126961904Y-88238095D01*
X126771428Y-88285714D01*
X126533333Y-88285714D01*
X126342857Y-88238095D01*
X126247619Y-88190476D01*
X126200000Y-88142857D01*
X126152380Y-88047619D01*
X126152380Y-87095238D02*
X126152380Y-87000000D01*
X126200000Y-86904761D01*
X126247619Y-86857142D01*
X126342857Y-86809523D01*
X126533333Y-86761904D01*
X126771428Y-86761904D01*
X126961904Y-86809523D01*
X127057142Y-86857142D01*
X127104761Y-86904761D01*
X127152380Y-87000000D01*
X127152380Y-87095238D01*
X127104761Y-87190476D01*
X127057142Y-87238095D01*
X126961904Y-87285714D01*
X126771428Y-87333333D01*
X126533333Y-87333333D01*
X126342857Y-87285714D01*
X126247619Y-87238095D01*
X126200000Y-87190476D01*
X126152380Y-87095238D01*
X127152380Y-85571428D02*
X126485714Y-85571428D01*
X126580952Y-85571428D02*
X126533333Y-85523809D01*
X126485714Y-85428571D01*
X126485714Y-85285714D01*
X126533333Y-85190476D01*
X126628571Y-85142857D01*
X127152380Y-85142857D01*
X126628571Y-85142857D02*
X126533333Y-85095238D01*
X126485714Y-85000000D01*
X126485714Y-84857142D01*
X126533333Y-84761904D01*
X126628571Y-84714285D01*
X127152380Y-84714285D01*
X127152380Y-84238095D02*
X126485714Y-84238095D01*
X126580952Y-84238095D02*
X126533333Y-84190476D01*
X126485714Y-84095238D01*
X126485714Y-83952380D01*
X126533333Y-83857142D01*
X126628571Y-83809523D01*
X127152380Y-83809523D01*
X126628571Y-83809523D02*
X126533333Y-83761904D01*
X126485714Y-83666666D01*
X126485714Y-83523809D01*
X126533333Y-83428571D01*
X126628571Y-83380952D01*
X127152380Y-83380952D01*
X128000000Y-86000000D02*
X128000000Y-83000000D01*
X137000000Y-86000000D02*
X127413579Y-86000000D01*
X137000000Y-83000000D02*
X127413579Y-83000000D01*
X128000000Y-83000000D02*
X128586421Y-84126504D01*
X128000000Y-83000000D02*
X127413579Y-84126504D01*
X128000000Y-86000000D02*
X128586421Y-84873496D01*
X128000000Y-86000000D02*
X127413579Y-84873496D01*
X137857142Y-75247619D02*
X137904761Y-75200000D01*
X138000000Y-75152380D01*
X138238095Y-75152380D01*
X138333333Y-75200000D01*
X138380952Y-75247619D01*
X138428571Y-75342857D01*
X138428571Y-75438095D01*
X138380952Y-75580952D01*
X137809523Y-76152380D01*
X138428571Y-76152380D01*
X139047619Y-75152380D02*
X139142857Y-75152380D01*
X139238095Y-75200000D01*
X139285714Y-75247619D01*
X139333333Y-75342857D01*
X139380952Y-75533333D01*
X139380952Y-75771428D01*
X139333333Y-75961904D01*
X139285714Y-76057142D01*
X139238095Y-76104761D01*
X139142857Y-76152380D01*
X139047619Y-76152380D01*
X138952380Y-76104761D01*
X138904761Y-76057142D01*
X138857142Y-75961904D01*
X138809523Y-75771428D01*
X138809523Y-75533333D01*
X138857142Y-75342857D01*
X138904761Y-75247619D01*
X138952380Y-75200000D01*
X139047619Y-75152380D01*
X139809523Y-76057142D02*
X139857142Y-76104761D01*
X139809523Y-76152380D01*
X139761904Y-76104761D01*
X139809523Y-76057142D01*
X139809523Y-76152380D01*
X140476190Y-75152380D02*
X140571428Y-75152380D01*
X140666666Y-75200000D01*
X140714285Y-75247619D01*
X140761904Y-75342857D01*
X140809523Y-75533333D01*
X140809523Y-75771428D01*
X140761904Y-75961904D01*
X140714285Y-76057142D01*
X140666666Y-76104761D01*
X140571428Y-76152380D01*
X140476190Y-76152380D01*
X140380952Y-76104761D01*
X140333333Y-76057142D01*
X140285714Y-75961904D01*
X140238095Y-75771428D01*
X140238095Y-75533333D01*
X140285714Y-75342857D01*
X140333333Y-75247619D01*
X140380952Y-75200000D01*
X140476190Y-75152380D01*
X141428571Y-75152380D02*
X141523809Y-75152380D01*
X141619047Y-75200000D01*
X141666666Y-75247619D01*
X141714285Y-75342857D01*
X141761904Y-75533333D01*
X141761904Y-75771428D01*
X141714285Y-75961904D01*
X141666666Y-76057142D01*
X141619047Y-76104761D01*
X141523809Y-76152380D01*
X141428571Y-76152380D01*
X141333333Y-76104761D01*
X141285714Y-76057142D01*
X141238095Y-75961904D01*
X141190476Y-75771428D01*
X141190476Y-75533333D01*
X141238095Y-75342857D01*
X141285714Y-75247619D01*
X141333333Y-75200000D01*
X141428571Y-75152380D01*
X142380952Y-75152380D02*
X142476190Y-75152380D01*
X142571428Y-75200000D01*
X142619047Y-75247619D01*
X142666666Y-75342857D01*
X142714285Y-75533333D01*
X142714285Y-75771428D01*
X142666666Y-75961904D01*
X142619047Y-76057142D01*
X142571428Y-76104761D01*
X142476190Y-76152380D01*
X142380952Y-76152380D01*
X142285714Y-76104761D01*
X142238095Y-76057142D01*
X142190476Y-75961904D01*
X142142857Y-75771428D01*
X142142857Y-75533333D01*
X142190476Y-75342857D01*
X142238095Y-75247619D01*
X142285714Y-75200000D01*
X142380952Y-75152380D01*
X143904761Y-76152380D02*
X143904761Y-75485714D01*
X143904761Y-75580952D02*
X143952380Y-75533333D01*
X144047619Y-75485714D01*
X144190476Y-75485714D01*
X144285714Y-75533333D01*
X144333333Y-75628571D01*
X144333333Y-76152380D01*
X144333333Y-75628571D02*
X144380952Y-75533333D01*
X144476190Y-75485714D01*
X144619047Y-75485714D01*
X144714285Y-75533333D01*
X144761904Y-75628571D01*
X144761904Y-76152380D01*
X145238095Y-76152380D02*
X145238095Y-75485714D01*
X145238095Y-75580952D02*
X145285714Y-75533333D01*
X145380952Y-75485714D01*
X145523809Y-75485714D01*
X145619047Y-75533333D01*
X145666666Y-75628571D01*
X145666666Y-76152380D01*
X145666666Y-75628571D02*
X145714285Y-75533333D01*
X145809523Y-75485714D01*
X145952380Y-75485714D01*
X146047619Y-75533333D01*
X146095238Y-75628571D01*
X146095238Y-76152380D01*
X132000000Y-77000000D02*
X152000000Y-77000000D01*
X132000000Y-84000000D02*
X132000000Y-76413579D01*
X152000000Y-84000000D02*
X152000000Y-76413579D01*
X152000000Y-77000000D02*
X150873496Y-77586421D01*
X152000000Y-77000000D02*
X150873496Y-76413579D01*
X132000000Y-77000000D02*
X133126504Y-77586421D01*
X132000000Y-77000000D02*
X133126504Y-76413579D01*
X129333333Y-112847619D02*
X129380952Y-112800000D01*
X129476190Y-112752380D01*
X129714285Y-112752380D01*
X129809523Y-112800000D01*
X129857142Y-112847619D01*
X129904761Y-112942857D01*
X129904761Y-113038095D01*
X129857142Y-113180952D01*
X129285714Y-113752380D01*
X129904761Y-113752380D01*
X130333333Y-113657142D02*
X130380952Y-113704761D01*
X130333333Y-113752380D01*
X130285714Y-113704761D01*
X130333333Y-113657142D01*
X130333333Y-113752380D01*
X131000000Y-112752380D02*
X131095238Y-112752380D01*
X131190476Y-112800000D01*
X131238095Y-112847619D01*
X131285714Y-112942857D01*
X131333333Y-113133333D01*
X131333333Y-113371428D01*
X131285714Y-113561904D01*
X131238095Y-113657142D01*
X131190476Y-113704761D01*
X131095238Y-113752380D01*
X131000000Y-113752380D01*
X130904761Y-113704761D01*
X130857142Y-113657142D01*
X130809523Y-113561904D01*
X130761904Y-113371428D01*
X130761904Y-113133333D01*
X130809523Y-112942857D01*
X130857142Y-112847619D01*
X130904761Y-112800000D01*
X131000000Y-112752380D01*
X131952380Y-112752380D02*
X132047619Y-112752380D01*
X132142857Y-112800000D01*
X132190476Y-112847619D01*
X132238095Y-112942857D01*
X132285714Y-113133333D01*
X132285714Y-113371428D01*
X132238095Y-113561904D01*
X132190476Y-113657142D01*
X132142857Y-113704761D01*
X132047619Y-113752380D01*
X131952380Y-113752380D01*
X131857142Y-113704761D01*
X131809523Y-113657142D01*
X131761904Y-113561904D01*
X131714285Y-113371428D01*
X131714285Y-113133333D01*
X131761904Y-112942857D01*
X131809523Y-112847619D01*
X131857142Y-112800000D01*
X131952380Y-112752380D01*
X132904761Y-112752380D02*
X133000000Y-112752380D01*
X133095238Y-112800000D01*
X133142857Y-112847619D01*
X133190476Y-112942857D01*
X133238095Y-113133333D01*
X133238095Y-113371428D01*
X133190476Y-113561904D01*
X133142857Y-113657142D01*
X133095238Y-113704761D01*
X133000000Y-113752380D01*
X132904761Y-113752380D01*
X132809523Y-113704761D01*
X132761904Y-113657142D01*
X132714285Y-113561904D01*
X132666666Y-113371428D01*
X132666666Y-113133333D01*
X132714285Y-112942857D01*
X132761904Y-112847619D01*
X132809523Y-112800000D01*
X132904761Y-112752380D01*
X134428571Y-113752380D02*
X134428571Y-113085714D01*
X134428571Y-113180952D02*
X134476190Y-113133333D01*
X134571428Y-113085714D01*
X134714285Y-113085714D01*
X134809523Y-113133333D01*
X134857142Y-113228571D01*
X134857142Y-113752380D01*
X134857142Y-113228571D02*
X134904761Y-113133333D01*
X135000000Y-113085714D01*
X135142857Y-113085714D01*
X135238095Y-113133333D01*
X135285714Y-113228571D01*
X135285714Y-113752380D01*
X135761904Y-113752380D02*
X135761904Y-113085714D01*
X135761904Y-113180952D02*
X135809523Y-113133333D01*
X135904761Y-113085714D01*
X136047619Y-113085714D01*
X136142857Y-113133333D01*
X136190476Y-113228571D01*
X136190476Y-113752380D01*
X136190476Y-113228571D02*
X136238095Y-113133333D01*
X136333333Y-113085714D01*
X136476190Y-113085714D01*
X136571428Y-113133333D01*
X136619047Y-113228571D01*
X136619047Y-113752380D01*
X134000000Y-112000000D02*
X132000000Y-112000000D01*
X134000000Y-103000000D02*
X134000000Y-112586421D01*
X132000000Y-103000000D02*
X132000000Y-112586421D01*
X132000000Y-112000000D02*
X133126504Y-111413579D01*
X132000000Y-112000000D02*
X133126504Y-112586421D01*
X134000000Y-112000000D02*
X132873496Y-111413579D01*
X134000000Y-112000000D02*
X132873496Y-112586421D01*
X139857142Y-70247619D02*
X139904761Y-70200000D01*
X140000000Y-70152380D01*
X140238095Y-70152380D01*
X140333333Y-70200000D01*
X140380952Y-70247619D01*
X140428571Y-70342857D01*
X140428571Y-70438095D01*
X140380952Y-70580952D01*
X139809523Y-71152380D01*
X140428571Y-71152380D01*
X141285714Y-70485714D02*
X141285714Y-71152380D01*
X141047619Y-70104761D02*
X140809523Y-70819047D01*
X141428571Y-70819047D01*
X141809523Y-71057142D02*
X141857142Y-71104761D01*
X141809523Y-71152380D01*
X141761904Y-71104761D01*
X141809523Y-71057142D01*
X141809523Y-71152380D01*
X142476190Y-70152380D02*
X142571428Y-70152380D01*
X142666666Y-70200000D01*
X142714285Y-70247619D01*
X142761904Y-70342857D01*
X142809523Y-70533333D01*
X142809523Y-70771428D01*
X142761904Y-70961904D01*
X142714285Y-71057142D01*
X142666666Y-71104761D01*
X142571428Y-71152380D01*
X142476190Y-71152380D01*
X142380952Y-71104761D01*
X142333333Y-71057142D01*
X142285714Y-70961904D01*
X142238095Y-70771428D01*
X142238095Y-70533333D01*
X142285714Y-70342857D01*
X142333333Y-70247619D01*
X142380952Y-70200000D01*
X142476190Y-70152380D01*
X143428571Y-70152380D02*
X143523809Y-70152380D01*
X143619047Y-70200000D01*
X143666666Y-70247619D01*
X143714285Y-70342857D01*
X143761904Y-70533333D01*
X143761904Y-70771428D01*
X143714285Y-70961904D01*
X143666666Y-71057142D01*
X143619047Y-71104761D01*
X143523809Y-71152380D01*
X143428571Y-71152380D01*
X143333333Y-71104761D01*
X143285714Y-71057142D01*
X143238095Y-70961904D01*
X143190476Y-70771428D01*
X143190476Y-70533333D01*
X143238095Y-70342857D01*
X143285714Y-70247619D01*
X143333333Y-70200000D01*
X143428571Y-70152380D01*
X144380952Y-70152380D02*
X144476190Y-70152380D01*
X144571428Y-70200000D01*
X144619047Y-70247619D01*
X144666666Y-70342857D01*
X144714285Y-70533333D01*
X144714285Y-70771428D01*
X144666666Y-70961904D01*
X144619047Y-71057142D01*
X144571428Y-71104761D01*
X144476190Y-71152380D01*
X144380952Y-71152380D01*
X144285714Y-71104761D01*
X144238095Y-71057142D01*
X144190476Y-70961904D01*
X144142857Y-70771428D01*
X144142857Y-70533333D01*
X144190476Y-70342857D01*
X144238095Y-70247619D01*
X144285714Y-70200000D01*
X144380952Y-70152380D01*
X145904761Y-71152380D02*
X145904761Y-70485714D01*
X145904761Y-70580952D02*
X145952380Y-70533333D01*
X146047619Y-70485714D01*
X146190476Y-70485714D01*
X146285714Y-70533333D01*
X146333333Y-70628571D01*
X146333333Y-71152380D01*
X146333333Y-70628571D02*
X146380952Y-70533333D01*
X146476190Y-70485714D01*
X146619047Y-70485714D01*
X146714285Y-70533333D01*
X146761904Y-70628571D01*
X146761904Y-71152380D01*
X147238095Y-71152380D02*
X147238095Y-70485714D01*
X147238095Y-70580952D02*
X147285714Y-70533333D01*
X147380952Y-70485714D01*
X147523809Y-70485714D01*
X147619047Y-70533333D01*
X147666666Y-70628571D01*
X147666666Y-71152380D01*
X147666666Y-70628571D02*
X147714285Y-70533333D01*
X147809523Y-70485714D01*
X147952380Y-70485714D01*
X148047619Y-70533333D01*
X148095238Y-70628571D01*
X148095238Y-71152380D01*
X132000000Y-72000000D02*
X156000000Y-72000000D01*
X132000000Y-84000000D02*
X132000000Y-71413579D01*
X156000000Y-84000000D02*
X156000000Y-71413579D01*
X156000000Y-72000000D02*
X154873496Y-72586421D01*
X156000000Y-72000000D02*
X154873496Y-71413579D01*
X132000000Y-72000000D02*
X133126504Y-72586421D01*
X132000000Y-72000000D02*
X133126504Y-71413579D01*
X117247619Y-99142857D02*
X117200000Y-99095238D01*
X117152380Y-99000000D01*
X117152380Y-98761904D01*
X117200000Y-98666666D01*
X117247619Y-98619047D01*
X117342857Y-98571428D01*
X117438095Y-98571428D01*
X117580952Y-98619047D01*
X118152380Y-99190476D01*
X118152380Y-98571428D01*
X117485714Y-97714285D02*
X118152380Y-97714285D01*
X117104761Y-97952380D02*
X117819047Y-98190476D01*
X117819047Y-97571428D01*
X118057142Y-97190476D02*
X118104761Y-97142857D01*
X118152380Y-97190476D01*
X118104761Y-97238095D01*
X118057142Y-97190476D01*
X118152380Y-97190476D01*
X117152380Y-96523809D02*
X117152380Y-96428571D01*
X117200000Y-96333333D01*
X117247619Y-96285714D01*
X117342857Y-96238095D01*
X117533333Y-96190476D01*
X117771428Y-96190476D01*
X117961904Y-96238095D01*
X118057142Y-96285714D01*
X118104761Y-96333333D01*
X118152380Y-96428571D01*
X118152380Y-96523809D01*
X118104761Y-96619047D01*
X118057142Y-96666666D01*
X117961904Y-96714285D01*
X117771428Y-96761904D01*
X117533333Y-96761904D01*
X117342857Y-96714285D01*
X117247619Y-96666666D01*
X117200000Y-96619047D01*
X117152380Y-96523809D01*
X117152380Y-95571428D02*
X117152380Y-95476190D01*
X117200000Y-95380952D01*
X117247619Y-95333333D01*
X117342857Y-95285714D01*
X117533333Y-95238095D01*
X117771428Y-95238095D01*
X117961904Y-95285714D01*
X118057142Y-95333333D01*
X118104761Y-95380952D01*
X118152380Y-95476190D01*
X118152380Y-95571428D01*
X118104761Y-95666666D01*
X118057142Y-95714285D01*
X117961904Y-95761904D01*
X117771428Y-95809523D01*
X117533333Y-95809523D01*
X117342857Y-95761904D01*
X117247619Y-95714285D01*
X117200000Y-95666666D01*
X117152380Y-95571428D01*
X117152380Y-94619047D02*
X117152380Y-94523809D01*
X117200000Y-94428571D01*
X117247619Y-94380952D01*
X117342857Y-94333333D01*
X117533333Y-94285714D01*
X117771428Y-94285714D01*
X117961904Y-94333333D01*
X118057142Y-94380952D01*
X118104761Y-94428571D01*
X118152380Y-94523809D01*
X118152380Y-94619047D01*
X118104761Y-94714285D01*
X118057142Y-94761904D01*
X117961904Y-94809523D01*
X117771428Y-94857142D01*
X117533333Y-94857142D01*
X117342857Y-94809523D01*
X117247619Y-94761904D01*
X117200000Y-94714285D01*
X117152380Y-94619047D01*
X118152380Y-93095238D02*
X117485714Y-93095238D01*
X117580952Y-93095238D02*
X117533333Y-93047619D01*
X117485714Y-92952380D01*
X117485714Y-92809523D01*
X117533333Y-92714285D01*
X117628571Y-92666666D01*
X118152380Y-92666666D01*
X117628571Y-92666666D02*
X117533333Y-92619047D01*
X117485714Y-92523809D01*
X117485714Y-92380952D01*
X117533333Y-92285714D01*
X117628571Y-92238095D01*
X118152380Y-92238095D01*
X118152380Y-91761904D02*
X117485714Y-91761904D01*
X117580952Y-91761904D02*
X117533333Y-91714285D01*
X117485714Y-91619047D01*
X117485714Y-91476190D01*
X117533333Y-91380952D01*
X117628571Y-91333333D01*
X118152380Y-91333333D01*
X117628571Y-91333333D02*
X117533333Y-91285714D01*
X117485714Y-91190476D01*
X117485714Y-91047619D01*
X117533333Y-90952380D01*
X117628571Y-90904761D01*
X118152380Y-90904761D01*
X119000000Y-107000000D02*
X119000000Y-83000000D01*
X133000000Y-107000000D02*
X118413579Y-107000000D01*
X133000000Y-83000000D02*
X118413579Y-83000000D01*
X119000000Y-83000000D02*
X119586421Y-84126504D01*
X119000000Y-83000000D02*
X118413579Y-84126504D01*
X119000000Y-107000000D02*
X119586421Y-105873496D01*
X119000000Y-107000000D02*
X118413579Y-105873496D01*
M02*
