%TF.GenerationSoftware,KiCad,Pcbnew,(5.1.6)-1*%
%TF.CreationDate,2021-08-06T10:58:57-04:00*%
%TF.ProjectId,RemoteTemp - MSP430 - RS422,52656d6f-7465-4546-956d-70202d204d53,rev?*%
%TF.SameCoordinates,Original*%
%TF.FileFunction,Profile,NP*%
%FSLAX46Y46*%
G04 Gerber Fmt 4.6, Leading zero omitted, Abs format (unit mm)*
G04 Created by KiCad (PCBNEW (5.1.6)-1) date 2021-08-06 10:58:57*
%MOMM*%
%LPD*%
G01*
G04 APERTURE LIST*
%TA.AperFunction,Profile*%
%ADD10C,0.050000*%
%TD*%
G04 APERTURE END LIST*
D10*
X156000000Y-106000000D02*
X156000000Y-105000000D01*
X154000000Y-107000000D02*
X155000000Y-107000000D01*
X156000000Y-106000000D02*
G75*
G02*
X155000000Y-107000000I-1000000J0D01*
G01*
X155000000Y-83000000D02*
X154000000Y-83000000D01*
X156000000Y-85000000D02*
X156000000Y-84000000D01*
X155000000Y-83000000D02*
G75*
G02*
X156000000Y-84000000I0J-1000000D01*
G01*
X133000000Y-83000000D02*
X134000000Y-83000000D01*
X132000000Y-85000000D02*
X132000000Y-84000000D01*
X132000000Y-84000000D02*
G75*
G02*
X133000000Y-83000000I1000000J0D01*
G01*
X133000000Y-101000000D02*
X134000000Y-101000000D01*
X133000000Y-105000000D02*
X134000000Y-105000000D01*
X133000000Y-107000000D02*
X134000000Y-107000000D01*
X133000000Y-101000000D02*
G75*
G02*
X132000000Y-100000000I0J1000000D01*
G01*
X134000000Y-101000000D02*
G75*
G02*
X134000000Y-105000000I0J-2000000D01*
G01*
X132000000Y-106000000D02*
G75*
G02*
X133000000Y-105000000I1000000J0D01*
G01*
X133000000Y-107000000D02*
G75*
G02*
X132000000Y-106000000I0J1000000D01*
G01*
X132000000Y-85000000D02*
X132000000Y-100000000D01*
X154000000Y-83000000D02*
X134000000Y-83000000D01*
X156000000Y-85000000D02*
X156000000Y-87000000D01*
X154000000Y-107000000D02*
X134000000Y-107000000D01*
X156000000Y-87000000D02*
X156000000Y-105000000D01*
M02*
