%TF.GenerationSoftware,KiCad,Pcbnew,(5.1.6)-1*%
%TF.CreationDate,2021-08-06T10:58:56-04:00*%
%TF.ProjectId,RemoteTemp - MSP430 - RS422,52656d6f-7465-4546-956d-70202d204d53,rev?*%
%TF.SameCoordinates,Original*%
%TF.FileFunction,Paste,Top*%
%TF.FilePolarity,Positive*%
%FSLAX46Y46*%
G04 Gerber Fmt 4.6, Leading zero omitted, Abs format (unit mm)*
G04 Created by KiCad (PCBNEW (5.1.6)-1) date 2021-08-06 10:58:56*
%MOMM*%
%LPD*%
G01*
G04 APERTURE LIST*
%ADD10R,0.700000X0.600000*%
%ADD11R,0.650000X1.060000*%
%ADD12R,0.650000X1.400000*%
%ADD13R,1.000000X0.800000*%
%ADD14R,0.450000X1.450000*%
%ADD15R,0.800000X0.900000*%
%ADD16R,1.060000X0.650000*%
%ADD17R,1.300000X0.600000*%
%ADD18R,1.000000X1.000000*%
G04 APERTURE END LIST*
%TO.C,C1*%
G36*
G01*
X143375000Y-87472500D02*
X143375000Y-87127500D01*
G75*
G02*
X143522500Y-86980000I147500J0D01*
G01*
X143817500Y-86980000D01*
G75*
G02*
X143965000Y-87127500I0J-147500D01*
G01*
X143965000Y-87472500D01*
G75*
G02*
X143817500Y-87620000I-147500J0D01*
G01*
X143522500Y-87620000D01*
G75*
G02*
X143375000Y-87472500I0J147500D01*
G01*
G37*
G36*
G01*
X142405000Y-87472500D02*
X142405000Y-87127500D01*
G75*
G02*
X142552500Y-86980000I147500J0D01*
G01*
X142847500Y-86980000D01*
G75*
G02*
X142995000Y-87127500I0J-147500D01*
G01*
X142995000Y-87472500D01*
G75*
G02*
X142847500Y-87620000I-147500J0D01*
G01*
X142552500Y-87620000D01*
G75*
G02*
X142405000Y-87472500I0J147500D01*
G01*
G37*
%TD*%
%TO.C,C2*%
G36*
G01*
X147535000Y-88472500D02*
X147535000Y-88127500D01*
G75*
G02*
X147682500Y-87980000I147500J0D01*
G01*
X147977500Y-87980000D01*
G75*
G02*
X148125000Y-88127500I0J-147500D01*
G01*
X148125000Y-88472500D01*
G75*
G02*
X147977500Y-88620000I-147500J0D01*
G01*
X147682500Y-88620000D01*
G75*
G02*
X147535000Y-88472500I0J147500D01*
G01*
G37*
G36*
G01*
X148505000Y-88472500D02*
X148505000Y-88127500D01*
G75*
G02*
X148652500Y-87980000I147500J0D01*
G01*
X148947500Y-87980000D01*
G75*
G02*
X149095000Y-88127500I0J-147500D01*
G01*
X149095000Y-88472500D01*
G75*
G02*
X148947500Y-88620000I-147500J0D01*
G01*
X148652500Y-88620000D01*
G75*
G02*
X148505000Y-88472500I0J147500D01*
G01*
G37*
%TD*%
%TO.C,C4*%
G36*
G01*
X138795000Y-94627500D02*
X138795000Y-94972500D01*
G75*
G02*
X138647500Y-95120000I-147500J0D01*
G01*
X138352500Y-95120000D01*
G75*
G02*
X138205000Y-94972500I0J147500D01*
G01*
X138205000Y-94627500D01*
G75*
G02*
X138352500Y-94480000I147500J0D01*
G01*
X138647500Y-94480000D01*
G75*
G02*
X138795000Y-94627500I0J-147500D01*
G01*
G37*
G36*
G01*
X137825000Y-94627500D02*
X137825000Y-94972500D01*
G75*
G02*
X137677500Y-95120000I-147500J0D01*
G01*
X137382500Y-95120000D01*
G75*
G02*
X137235000Y-94972500I0J147500D01*
G01*
X137235000Y-94627500D01*
G75*
G02*
X137382500Y-94480000I147500J0D01*
G01*
X137677500Y-94480000D01*
G75*
G02*
X137825000Y-94627500I0J-147500D01*
G01*
G37*
%TD*%
%TO.C,C5*%
G36*
G01*
X139137500Y-102806250D02*
X139137500Y-102293750D01*
G75*
G02*
X139356250Y-102075000I218750J0D01*
G01*
X139793750Y-102075000D01*
G75*
G02*
X140012500Y-102293750I0J-218750D01*
G01*
X140012500Y-102806250D01*
G75*
G02*
X139793750Y-103025000I-218750J0D01*
G01*
X139356250Y-103025000D01*
G75*
G02*
X139137500Y-102806250I0J218750D01*
G01*
G37*
G36*
G01*
X137562500Y-102806250D02*
X137562500Y-102293750D01*
G75*
G02*
X137781250Y-102075000I218750J0D01*
G01*
X138218750Y-102075000D01*
G75*
G02*
X138437500Y-102293750I0J-218750D01*
G01*
X138437500Y-102806250D01*
G75*
G02*
X138218750Y-103025000I-218750J0D01*
G01*
X137781250Y-103025000D01*
G75*
G02*
X137562500Y-102806250I0J218750D01*
G01*
G37*
%TD*%
%TO.C,C6*%
G36*
G01*
X135062500Y-97943750D02*
X135062500Y-98456250D01*
G75*
G02*
X134843750Y-98675000I-218750J0D01*
G01*
X134406250Y-98675000D01*
G75*
G02*
X134187500Y-98456250I0J218750D01*
G01*
X134187500Y-97943750D01*
G75*
G02*
X134406250Y-97725000I218750J0D01*
G01*
X134843750Y-97725000D01*
G75*
G02*
X135062500Y-97943750I0J-218750D01*
G01*
G37*
G36*
G01*
X136637500Y-97943750D02*
X136637500Y-98456250D01*
G75*
G02*
X136418750Y-98675000I-218750J0D01*
G01*
X135981250Y-98675000D01*
G75*
G02*
X135762500Y-98456250I0J218750D01*
G01*
X135762500Y-97943750D01*
G75*
G02*
X135981250Y-97725000I218750J0D01*
G01*
X136418750Y-97725000D01*
G75*
G02*
X136637500Y-97943750I0J-218750D01*
G01*
G37*
%TD*%
%TO.C,C8*%
G36*
G01*
X151762500Y-89956250D02*
X151762500Y-89443750D01*
G75*
G02*
X151981250Y-89225000I218750J0D01*
G01*
X152418750Y-89225000D01*
G75*
G02*
X152637500Y-89443750I0J-218750D01*
G01*
X152637500Y-89956250D01*
G75*
G02*
X152418750Y-90175000I-218750J0D01*
G01*
X151981250Y-90175000D01*
G75*
G02*
X151762500Y-89956250I0J218750D01*
G01*
G37*
G36*
G01*
X153337500Y-89956250D02*
X153337500Y-89443750D01*
G75*
G02*
X153556250Y-89225000I218750J0D01*
G01*
X153993750Y-89225000D01*
G75*
G02*
X154212500Y-89443750I0J-218750D01*
G01*
X154212500Y-89956250D01*
G75*
G02*
X153993750Y-90175000I-218750J0D01*
G01*
X153556250Y-90175000D01*
G75*
G02*
X153337500Y-89956250I0J218750D01*
G01*
G37*
%TD*%
D10*
%TO.C,D1*%
X145650000Y-105050000D03*
X145650000Y-103650000D03*
%TD*%
%TO.C,R1*%
G36*
G01*
X143965000Y-88227500D02*
X143965000Y-88572500D01*
G75*
G02*
X143817500Y-88720000I-147500J0D01*
G01*
X143522500Y-88720000D01*
G75*
G02*
X143375000Y-88572500I0J147500D01*
G01*
X143375000Y-88227500D01*
G75*
G02*
X143522500Y-88080000I147500J0D01*
G01*
X143817500Y-88080000D01*
G75*
G02*
X143965000Y-88227500I0J-147500D01*
G01*
G37*
G36*
G01*
X142995000Y-88227500D02*
X142995000Y-88572500D01*
G75*
G02*
X142847500Y-88720000I-147500J0D01*
G01*
X142552500Y-88720000D01*
G75*
G02*
X142405000Y-88572500I0J147500D01*
G01*
X142405000Y-88227500D01*
G75*
G02*
X142552500Y-88080000I147500J0D01*
G01*
X142847500Y-88080000D01*
G75*
G02*
X142995000Y-88227500I0J-147500D01*
G01*
G37*
%TD*%
%TO.C,U1*%
G36*
G01*
X147937500Y-95125000D02*
X147712500Y-95125000D01*
G75*
G02*
X147600000Y-95012500I0J112500D01*
G01*
X147600000Y-93612500D01*
G75*
G02*
X147712500Y-93500000I112500J0D01*
G01*
X147937500Y-93500000D01*
G75*
G02*
X148050000Y-93612500I0J-112500D01*
G01*
X148050000Y-95012500D01*
G75*
G02*
X147937500Y-95125000I-112500J0D01*
G01*
G37*
G36*
G01*
X148587500Y-95125000D02*
X148362500Y-95125000D01*
G75*
G02*
X148250000Y-95012500I0J112500D01*
G01*
X148250000Y-93612500D01*
G75*
G02*
X148362500Y-93500000I112500J0D01*
G01*
X148587500Y-93500000D01*
G75*
G02*
X148700000Y-93612500I0J-112500D01*
G01*
X148700000Y-95012500D01*
G75*
G02*
X148587500Y-95125000I-112500J0D01*
G01*
G37*
G36*
G01*
X149237500Y-95125000D02*
X149012500Y-95125000D01*
G75*
G02*
X148900000Y-95012500I0J112500D01*
G01*
X148900000Y-93612500D01*
G75*
G02*
X149012500Y-93500000I112500J0D01*
G01*
X149237500Y-93500000D01*
G75*
G02*
X149350000Y-93612500I0J-112500D01*
G01*
X149350000Y-95012500D01*
G75*
G02*
X149237500Y-95125000I-112500J0D01*
G01*
G37*
G36*
G01*
X149887500Y-95125000D02*
X149662500Y-95125000D01*
G75*
G02*
X149550000Y-95012500I0J112500D01*
G01*
X149550000Y-93612500D01*
G75*
G02*
X149662500Y-93500000I112500J0D01*
G01*
X149887500Y-93500000D01*
G75*
G02*
X150000000Y-93612500I0J-112500D01*
G01*
X150000000Y-95012500D01*
G75*
G02*
X149887500Y-95125000I-112500J0D01*
G01*
G37*
G36*
G01*
X149887500Y-90900000D02*
X149662500Y-90900000D01*
G75*
G02*
X149550000Y-90787500I0J112500D01*
G01*
X149550000Y-89387500D01*
G75*
G02*
X149662500Y-89275000I112500J0D01*
G01*
X149887500Y-89275000D01*
G75*
G02*
X150000000Y-89387500I0J-112500D01*
G01*
X150000000Y-90787500D01*
G75*
G02*
X149887500Y-90900000I-112500J0D01*
G01*
G37*
G36*
G01*
X149237500Y-90900000D02*
X149012500Y-90900000D01*
G75*
G02*
X148900000Y-90787500I0J112500D01*
G01*
X148900000Y-89387500D01*
G75*
G02*
X149012500Y-89275000I112500J0D01*
G01*
X149237500Y-89275000D01*
G75*
G02*
X149350000Y-89387500I0J-112500D01*
G01*
X149350000Y-90787500D01*
G75*
G02*
X149237500Y-90900000I-112500J0D01*
G01*
G37*
G36*
G01*
X148587500Y-90900000D02*
X148362500Y-90900000D01*
G75*
G02*
X148250000Y-90787500I0J112500D01*
G01*
X148250000Y-89387500D01*
G75*
G02*
X148362500Y-89275000I112500J0D01*
G01*
X148587500Y-89275000D01*
G75*
G02*
X148700000Y-89387500I0J-112500D01*
G01*
X148700000Y-90787500D01*
G75*
G02*
X148587500Y-90900000I-112500J0D01*
G01*
G37*
G36*
G01*
X147937500Y-90900000D02*
X147712500Y-90900000D01*
G75*
G02*
X147600000Y-90787500I0J112500D01*
G01*
X147600000Y-89387500D01*
G75*
G02*
X147712500Y-89275000I112500J0D01*
G01*
X147937500Y-89275000D01*
G75*
G02*
X148050000Y-89387500I0J-112500D01*
G01*
X148050000Y-90787500D01*
G75*
G02*
X147937500Y-90900000I-112500J0D01*
G01*
G37*
%TD*%
D11*
%TO.C,U3*%
X138000000Y-98200000D03*
X139900000Y-98200000D03*
D12*
X139900000Y-100600000D03*
D11*
X138950000Y-100400000D03*
X138000000Y-100400000D03*
%TD*%
%TO.C,C11*%
G36*
G01*
X148156250Y-105487500D02*
X147643750Y-105487500D01*
G75*
G02*
X147425000Y-105268750I0J218750D01*
G01*
X147425000Y-104831250D01*
G75*
G02*
X147643750Y-104612500I218750J0D01*
G01*
X148156250Y-104612500D01*
G75*
G02*
X148375000Y-104831250I0J-218750D01*
G01*
X148375000Y-105268750D01*
G75*
G02*
X148156250Y-105487500I-218750J0D01*
G01*
G37*
G36*
G01*
X148156250Y-103912500D02*
X147643750Y-103912500D01*
G75*
G02*
X147425000Y-103693750I0J218750D01*
G01*
X147425000Y-103256250D01*
G75*
G02*
X147643750Y-103037500I218750J0D01*
G01*
X148156250Y-103037500D01*
G75*
G02*
X148375000Y-103256250I0J-218750D01*
G01*
X148375000Y-103693750D01*
G75*
G02*
X148156250Y-103912500I-218750J0D01*
G01*
G37*
%TD*%
%TO.C,C12*%
G36*
G01*
X138937500Y-95843750D02*
X138937500Y-96356250D01*
G75*
G02*
X138718750Y-96575000I-218750J0D01*
G01*
X138281250Y-96575000D01*
G75*
G02*
X138062500Y-96356250I0J218750D01*
G01*
X138062500Y-95843750D01*
G75*
G02*
X138281250Y-95625000I218750J0D01*
G01*
X138718750Y-95625000D01*
G75*
G02*
X138937500Y-95843750I0J-218750D01*
G01*
G37*
G36*
G01*
X137362500Y-95843750D02*
X137362500Y-96356250D01*
G75*
G02*
X137143750Y-96575000I-218750J0D01*
G01*
X136706250Y-96575000D01*
G75*
G02*
X136487500Y-96356250I0J218750D01*
G01*
X136487500Y-95843750D01*
G75*
G02*
X136706250Y-95625000I218750J0D01*
G01*
X137143750Y-95625000D01*
G75*
G02*
X137362500Y-95843750I0J-218750D01*
G01*
G37*
%TD*%
D13*
%TO.C,D3*%
X135850000Y-89000000D03*
X135850000Y-87950000D03*
X137500000Y-87950000D03*
X137500000Y-89000000D03*
%TD*%
%TO.C,R4*%
G36*
G01*
X140365000Y-88327500D02*
X140365000Y-88672500D01*
G75*
G02*
X140217500Y-88820000I-147500J0D01*
G01*
X139922500Y-88820000D01*
G75*
G02*
X139775000Y-88672500I0J147500D01*
G01*
X139775000Y-88327500D01*
G75*
G02*
X139922500Y-88180000I147500J0D01*
G01*
X140217500Y-88180000D01*
G75*
G02*
X140365000Y-88327500I0J-147500D01*
G01*
G37*
G36*
G01*
X139395000Y-88327500D02*
X139395000Y-88672500D01*
G75*
G02*
X139247500Y-88820000I-147500J0D01*
G01*
X138952500Y-88820000D01*
G75*
G02*
X138805000Y-88672500I0J147500D01*
G01*
X138805000Y-88327500D01*
G75*
G02*
X138952500Y-88180000I147500J0D01*
G01*
X139247500Y-88180000D01*
G75*
G02*
X139395000Y-88327500I0J-147500D01*
G01*
G37*
%TD*%
%TO.C,R5*%
G36*
G01*
X134672500Y-90265000D02*
X134327500Y-90265000D01*
G75*
G02*
X134180000Y-90117500I0J147500D01*
G01*
X134180000Y-89822500D01*
G75*
G02*
X134327500Y-89675000I147500J0D01*
G01*
X134672500Y-89675000D01*
G75*
G02*
X134820000Y-89822500I0J-147500D01*
G01*
X134820000Y-90117500D01*
G75*
G02*
X134672500Y-90265000I-147500J0D01*
G01*
G37*
G36*
G01*
X134672500Y-89295000D02*
X134327500Y-89295000D01*
G75*
G02*
X134180000Y-89147500I0J147500D01*
G01*
X134180000Y-88852500D01*
G75*
G02*
X134327500Y-88705000I147500J0D01*
G01*
X134672500Y-88705000D01*
G75*
G02*
X134820000Y-88852500I0J-147500D01*
G01*
X134820000Y-89147500D01*
G75*
G02*
X134672500Y-89295000I-147500J0D01*
G01*
G37*
%TD*%
%TO.C,R6*%
G36*
G01*
X139395000Y-87227500D02*
X139395000Y-87572500D01*
G75*
G02*
X139247500Y-87720000I-147500J0D01*
G01*
X138952500Y-87720000D01*
G75*
G02*
X138805000Y-87572500I0J147500D01*
G01*
X138805000Y-87227500D01*
G75*
G02*
X138952500Y-87080000I147500J0D01*
G01*
X139247500Y-87080000D01*
G75*
G02*
X139395000Y-87227500I0J-147500D01*
G01*
G37*
G36*
G01*
X140365000Y-87227500D02*
X140365000Y-87572500D01*
G75*
G02*
X140217500Y-87720000I-147500J0D01*
G01*
X139922500Y-87720000D01*
G75*
G02*
X139775000Y-87572500I0J147500D01*
G01*
X139775000Y-87227500D01*
G75*
G02*
X139922500Y-87080000I147500J0D01*
G01*
X140217500Y-87080000D01*
G75*
G02*
X140365000Y-87227500I0J-147500D01*
G01*
G37*
%TD*%
D14*
%TO.C,U2*%
X140100000Y-96100000D03*
X140750000Y-96100000D03*
X141400000Y-96100000D03*
X142050000Y-96100000D03*
X142700000Y-96100000D03*
X143350000Y-96100000D03*
X144000000Y-96100000D03*
X144650000Y-96100000D03*
X145300000Y-96100000D03*
X145950000Y-96100000D03*
X145950000Y-90200000D03*
X145300000Y-90200000D03*
X144650000Y-90200000D03*
X144000000Y-90200000D03*
X143350000Y-90200000D03*
X142700000Y-90200000D03*
X142050000Y-90200000D03*
X141400000Y-90200000D03*
X140750000Y-90200000D03*
X140100000Y-90200000D03*
%TD*%
%TO.C,C14*%
G36*
G01*
X144812500Y-102156250D02*
X144812500Y-101643750D01*
G75*
G02*
X145031250Y-101425000I218750J0D01*
G01*
X145468750Y-101425000D01*
G75*
G02*
X145687500Y-101643750I0J-218750D01*
G01*
X145687500Y-102156250D01*
G75*
G02*
X145468750Y-102375000I-218750J0D01*
G01*
X145031250Y-102375000D01*
G75*
G02*
X144812500Y-102156250I0J218750D01*
G01*
G37*
G36*
G01*
X146387500Y-102156250D02*
X146387500Y-101643750D01*
G75*
G02*
X146606250Y-101425000I218750J0D01*
G01*
X147043750Y-101425000D01*
G75*
G02*
X147262500Y-101643750I0J-218750D01*
G01*
X147262500Y-102156250D01*
G75*
G02*
X147043750Y-102375000I-218750J0D01*
G01*
X146606250Y-102375000D01*
G75*
G02*
X146387500Y-102156250I0J218750D01*
G01*
G37*
%TD*%
D15*
%TO.C,Q1*%
X143600000Y-101900000D03*
X141700000Y-101900000D03*
X142650000Y-103900000D03*
%TD*%
%TO.C,R11*%
G36*
G01*
X142335000Y-100572500D02*
X142335000Y-100227500D01*
G75*
G02*
X142482500Y-100080000I147500J0D01*
G01*
X142777500Y-100080000D01*
G75*
G02*
X142925000Y-100227500I0J-147500D01*
G01*
X142925000Y-100572500D01*
G75*
G02*
X142777500Y-100720000I-147500J0D01*
G01*
X142482500Y-100720000D01*
G75*
G02*
X142335000Y-100572500I0J147500D01*
G01*
G37*
G36*
G01*
X143305000Y-100572500D02*
X143305000Y-100227500D01*
G75*
G02*
X143452500Y-100080000I147500J0D01*
G01*
X143747500Y-100080000D01*
G75*
G02*
X143895000Y-100227500I0J-147500D01*
G01*
X143895000Y-100572500D01*
G75*
G02*
X143747500Y-100720000I-147500J0D01*
G01*
X143452500Y-100720000D01*
G75*
G02*
X143305000Y-100572500I0J147500D01*
G01*
G37*
%TD*%
%TO.C,C3*%
G36*
G01*
X146377500Y-97820000D02*
X146722500Y-97820000D01*
G75*
G02*
X146870000Y-97967500I0J-147500D01*
G01*
X146870000Y-98262500D01*
G75*
G02*
X146722500Y-98410000I-147500J0D01*
G01*
X146377500Y-98410000D01*
G75*
G02*
X146230000Y-98262500I0J147500D01*
G01*
X146230000Y-97967500D01*
G75*
G02*
X146377500Y-97820000I147500J0D01*
G01*
G37*
G36*
G01*
X146377500Y-98790000D02*
X146722500Y-98790000D01*
G75*
G02*
X146870000Y-98937500I0J-147500D01*
G01*
X146870000Y-99232500D01*
G75*
G02*
X146722500Y-99380000I-147500J0D01*
G01*
X146377500Y-99380000D01*
G75*
G02*
X146230000Y-99232500I0J147500D01*
G01*
X146230000Y-98937500D01*
G75*
G02*
X146377500Y-98790000I147500J0D01*
G01*
G37*
%TD*%
%TO.C,R2*%
G36*
G01*
X142305000Y-98972500D02*
X142305000Y-98627500D01*
G75*
G02*
X142452500Y-98480000I147500J0D01*
G01*
X142747500Y-98480000D01*
G75*
G02*
X142895000Y-98627500I0J-147500D01*
G01*
X142895000Y-98972500D01*
G75*
G02*
X142747500Y-99120000I-147500J0D01*
G01*
X142452500Y-99120000D01*
G75*
G02*
X142305000Y-98972500I0J147500D01*
G01*
G37*
G36*
G01*
X143275000Y-98972500D02*
X143275000Y-98627500D01*
G75*
G02*
X143422500Y-98480000I147500J0D01*
G01*
X143717500Y-98480000D01*
G75*
G02*
X143865000Y-98627500I0J-147500D01*
G01*
X143865000Y-98972500D01*
G75*
G02*
X143717500Y-99120000I-147500J0D01*
G01*
X143422500Y-99120000D01*
G75*
G02*
X143275000Y-98972500I0J147500D01*
G01*
G37*
%TD*%
%TO.C,R3*%
G36*
G01*
X140375000Y-105887500D02*
X140375000Y-105412500D01*
G75*
G02*
X140612500Y-105175000I237500J0D01*
G01*
X141187500Y-105175000D01*
G75*
G02*
X141425000Y-105412500I0J-237500D01*
G01*
X141425000Y-105887500D01*
G75*
G02*
X141187500Y-106125000I-237500J0D01*
G01*
X140612500Y-106125000D01*
G75*
G02*
X140375000Y-105887500I0J237500D01*
G01*
G37*
G36*
G01*
X142125000Y-105887500D02*
X142125000Y-105412500D01*
G75*
G02*
X142362500Y-105175000I237500J0D01*
G01*
X142937500Y-105175000D01*
G75*
G02*
X143175000Y-105412500I0J-237500D01*
G01*
X143175000Y-105887500D01*
G75*
G02*
X142937500Y-106125000I-237500J0D01*
G01*
X142362500Y-106125000D01*
G75*
G02*
X142125000Y-105887500I0J237500D01*
G01*
G37*
%TD*%
D16*
%TO.C,U4*%
X148100000Y-97900000D03*
X148100000Y-98850000D03*
X148100000Y-99800000D03*
X150300000Y-99800000D03*
X150300000Y-97900000D03*
X150300000Y-98850000D03*
%TD*%
D17*
%TO.C,U5*%
X135800000Y-92150000D03*
X137900000Y-91200000D03*
X137900000Y-93100000D03*
%TD*%
D18*
%TO.C,D2*%
X149800000Y-105050000D03*
X149800000Y-102550000D03*
%TD*%
M02*
