%TF.GenerationSoftware,KiCad,Pcbnew,(5.1.6)-1*%
%TF.CreationDate,2021-08-06T10:58:56-04:00*%
%TF.ProjectId,RemoteTemp - MSP430 - RS422,52656d6f-7465-4546-956d-70202d204d53,rev?*%
%TF.SameCoordinates,Original*%
%TF.FileFunction,Soldermask,Top*%
%TF.FilePolarity,Negative*%
%FSLAX46Y46*%
G04 Gerber Fmt 4.6, Leading zero omitted, Abs format (unit mm)*
G04 Created by KiCad (PCBNEW (5.1.6)-1) date 2021-08-06 10:58:56*
%MOMM*%
%LPD*%
G01*
G04 APERTURE LIST*
%ADD10R,0.800000X0.700000*%
%ADD11C,5.100000*%
%ADD12R,0.750000X1.160000*%
%ADD13R,0.750000X1.500000*%
%ADD14R,1.100000X0.900000*%
%ADD15R,0.550000X1.550000*%
%ADD16R,0.900000X1.000000*%
%ADD17R,3.100000X2.100000*%
%ADD18O,3.100000X2.100000*%
%ADD19R,1.160000X0.750000*%
%ADD20R,1.440000X0.740000*%
%ADD21R,1.100000X1.100000*%
%ADD22R,1.800000X1.800000*%
%ADD23O,1.800000X1.800000*%
%ADD24C,0.850000*%
G04 APERTURE END LIST*
%TO.C,C1*%
G36*
G01*
X143325000Y-87497500D02*
X143325000Y-87102500D01*
G75*
G02*
X143497500Y-86930000I172500J0D01*
G01*
X143842500Y-86930000D01*
G75*
G02*
X144015000Y-87102500I0J-172500D01*
G01*
X144015000Y-87497500D01*
G75*
G02*
X143842500Y-87670000I-172500J0D01*
G01*
X143497500Y-87670000D01*
G75*
G02*
X143325000Y-87497500I0J172500D01*
G01*
G37*
G36*
G01*
X142355000Y-87497500D02*
X142355000Y-87102500D01*
G75*
G02*
X142527500Y-86930000I172500J0D01*
G01*
X142872500Y-86930000D01*
G75*
G02*
X143045000Y-87102500I0J-172500D01*
G01*
X143045000Y-87497500D01*
G75*
G02*
X142872500Y-87670000I-172500J0D01*
G01*
X142527500Y-87670000D01*
G75*
G02*
X142355000Y-87497500I0J172500D01*
G01*
G37*
%TD*%
%TO.C,C2*%
G36*
G01*
X147485000Y-88497500D02*
X147485000Y-88102500D01*
G75*
G02*
X147657500Y-87930000I172500J0D01*
G01*
X148002500Y-87930000D01*
G75*
G02*
X148175000Y-88102500I0J-172500D01*
G01*
X148175000Y-88497500D01*
G75*
G02*
X148002500Y-88670000I-172500J0D01*
G01*
X147657500Y-88670000D01*
G75*
G02*
X147485000Y-88497500I0J172500D01*
G01*
G37*
G36*
G01*
X148455000Y-88497500D02*
X148455000Y-88102500D01*
G75*
G02*
X148627500Y-87930000I172500J0D01*
G01*
X148972500Y-87930000D01*
G75*
G02*
X149145000Y-88102500I0J-172500D01*
G01*
X149145000Y-88497500D01*
G75*
G02*
X148972500Y-88670000I-172500J0D01*
G01*
X148627500Y-88670000D01*
G75*
G02*
X148455000Y-88497500I0J172500D01*
G01*
G37*
%TD*%
%TO.C,C4*%
G36*
G01*
X138845000Y-94602500D02*
X138845000Y-94997500D01*
G75*
G02*
X138672500Y-95170000I-172500J0D01*
G01*
X138327500Y-95170000D01*
G75*
G02*
X138155000Y-94997500I0J172500D01*
G01*
X138155000Y-94602500D01*
G75*
G02*
X138327500Y-94430000I172500J0D01*
G01*
X138672500Y-94430000D01*
G75*
G02*
X138845000Y-94602500I0J-172500D01*
G01*
G37*
G36*
G01*
X137875000Y-94602500D02*
X137875000Y-94997500D01*
G75*
G02*
X137702500Y-95170000I-172500J0D01*
G01*
X137357500Y-95170000D01*
G75*
G02*
X137185000Y-94997500I0J172500D01*
G01*
X137185000Y-94602500D01*
G75*
G02*
X137357500Y-94430000I172500J0D01*
G01*
X137702500Y-94430000D01*
G75*
G02*
X137875000Y-94602500I0J-172500D01*
G01*
G37*
%TD*%
%TO.C,C5*%
G36*
G01*
X139087500Y-102831250D02*
X139087500Y-102268750D01*
G75*
G02*
X139331250Y-102025000I243750J0D01*
G01*
X139818750Y-102025000D01*
G75*
G02*
X140062500Y-102268750I0J-243750D01*
G01*
X140062500Y-102831250D01*
G75*
G02*
X139818750Y-103075000I-243750J0D01*
G01*
X139331250Y-103075000D01*
G75*
G02*
X139087500Y-102831250I0J243750D01*
G01*
G37*
G36*
G01*
X137512500Y-102831250D02*
X137512500Y-102268750D01*
G75*
G02*
X137756250Y-102025000I243750J0D01*
G01*
X138243750Y-102025000D01*
G75*
G02*
X138487500Y-102268750I0J-243750D01*
G01*
X138487500Y-102831250D01*
G75*
G02*
X138243750Y-103075000I-243750J0D01*
G01*
X137756250Y-103075000D01*
G75*
G02*
X137512500Y-102831250I0J243750D01*
G01*
G37*
%TD*%
%TO.C,C6*%
G36*
G01*
X135112500Y-97918750D02*
X135112500Y-98481250D01*
G75*
G02*
X134868750Y-98725000I-243750J0D01*
G01*
X134381250Y-98725000D01*
G75*
G02*
X134137500Y-98481250I0J243750D01*
G01*
X134137500Y-97918750D01*
G75*
G02*
X134381250Y-97675000I243750J0D01*
G01*
X134868750Y-97675000D01*
G75*
G02*
X135112500Y-97918750I0J-243750D01*
G01*
G37*
G36*
G01*
X136687500Y-97918750D02*
X136687500Y-98481250D01*
G75*
G02*
X136443750Y-98725000I-243750J0D01*
G01*
X135956250Y-98725000D01*
G75*
G02*
X135712500Y-98481250I0J243750D01*
G01*
X135712500Y-97918750D01*
G75*
G02*
X135956250Y-97675000I243750J0D01*
G01*
X136443750Y-97675000D01*
G75*
G02*
X136687500Y-97918750I0J-243750D01*
G01*
G37*
%TD*%
%TO.C,C8*%
G36*
G01*
X151712500Y-89981250D02*
X151712500Y-89418750D01*
G75*
G02*
X151956250Y-89175000I243750J0D01*
G01*
X152443750Y-89175000D01*
G75*
G02*
X152687500Y-89418750I0J-243750D01*
G01*
X152687500Y-89981250D01*
G75*
G02*
X152443750Y-90225000I-243750J0D01*
G01*
X151956250Y-90225000D01*
G75*
G02*
X151712500Y-89981250I0J243750D01*
G01*
G37*
G36*
G01*
X153287500Y-89981250D02*
X153287500Y-89418750D01*
G75*
G02*
X153531250Y-89175000I243750J0D01*
G01*
X154018750Y-89175000D01*
G75*
G02*
X154262500Y-89418750I0J-243750D01*
G01*
X154262500Y-89981250D01*
G75*
G02*
X154018750Y-90225000I-243750J0D01*
G01*
X153531250Y-90225000D01*
G75*
G02*
X153287500Y-89981250I0J243750D01*
G01*
G37*
%TD*%
D10*
%TO.C,D1*%
X145650000Y-105050000D03*
X145650000Y-103650000D03*
%TD*%
D11*
%TO.C,H1*%
X152000000Y-86000000D03*
%TD*%
%TO.C,R1*%
G36*
G01*
X144015000Y-88202500D02*
X144015000Y-88597500D01*
G75*
G02*
X143842500Y-88770000I-172500J0D01*
G01*
X143497500Y-88770000D01*
G75*
G02*
X143325000Y-88597500I0J172500D01*
G01*
X143325000Y-88202500D01*
G75*
G02*
X143497500Y-88030000I172500J0D01*
G01*
X143842500Y-88030000D01*
G75*
G02*
X144015000Y-88202500I0J-172500D01*
G01*
G37*
G36*
G01*
X143045000Y-88202500D02*
X143045000Y-88597500D01*
G75*
G02*
X142872500Y-88770000I-172500J0D01*
G01*
X142527500Y-88770000D01*
G75*
G02*
X142355000Y-88597500I0J172500D01*
G01*
X142355000Y-88202500D01*
G75*
G02*
X142527500Y-88030000I172500J0D01*
G01*
X142872500Y-88030000D01*
G75*
G02*
X143045000Y-88202500I0J-172500D01*
G01*
G37*
%TD*%
%TO.C,U1*%
G36*
G01*
X147962500Y-95175000D02*
X147687500Y-95175000D01*
G75*
G02*
X147550000Y-95037500I0J137500D01*
G01*
X147550000Y-93587500D01*
G75*
G02*
X147687500Y-93450000I137500J0D01*
G01*
X147962500Y-93450000D01*
G75*
G02*
X148100000Y-93587500I0J-137500D01*
G01*
X148100000Y-95037500D01*
G75*
G02*
X147962500Y-95175000I-137500J0D01*
G01*
G37*
G36*
G01*
X148612500Y-95175000D02*
X148337500Y-95175000D01*
G75*
G02*
X148200000Y-95037500I0J137500D01*
G01*
X148200000Y-93587500D01*
G75*
G02*
X148337500Y-93450000I137500J0D01*
G01*
X148612500Y-93450000D01*
G75*
G02*
X148750000Y-93587500I0J-137500D01*
G01*
X148750000Y-95037500D01*
G75*
G02*
X148612500Y-95175000I-137500J0D01*
G01*
G37*
G36*
G01*
X149262500Y-95175000D02*
X148987500Y-95175000D01*
G75*
G02*
X148850000Y-95037500I0J137500D01*
G01*
X148850000Y-93587500D01*
G75*
G02*
X148987500Y-93450000I137500J0D01*
G01*
X149262500Y-93450000D01*
G75*
G02*
X149400000Y-93587500I0J-137500D01*
G01*
X149400000Y-95037500D01*
G75*
G02*
X149262500Y-95175000I-137500J0D01*
G01*
G37*
G36*
G01*
X149912500Y-95175000D02*
X149637500Y-95175000D01*
G75*
G02*
X149500000Y-95037500I0J137500D01*
G01*
X149500000Y-93587500D01*
G75*
G02*
X149637500Y-93450000I137500J0D01*
G01*
X149912500Y-93450000D01*
G75*
G02*
X150050000Y-93587500I0J-137500D01*
G01*
X150050000Y-95037500D01*
G75*
G02*
X149912500Y-95175000I-137500J0D01*
G01*
G37*
G36*
G01*
X149912500Y-90950000D02*
X149637500Y-90950000D01*
G75*
G02*
X149500000Y-90812500I0J137500D01*
G01*
X149500000Y-89362500D01*
G75*
G02*
X149637500Y-89225000I137500J0D01*
G01*
X149912500Y-89225000D01*
G75*
G02*
X150050000Y-89362500I0J-137500D01*
G01*
X150050000Y-90812500D01*
G75*
G02*
X149912500Y-90950000I-137500J0D01*
G01*
G37*
G36*
G01*
X149262500Y-90950000D02*
X148987500Y-90950000D01*
G75*
G02*
X148850000Y-90812500I0J137500D01*
G01*
X148850000Y-89362500D01*
G75*
G02*
X148987500Y-89225000I137500J0D01*
G01*
X149262500Y-89225000D01*
G75*
G02*
X149400000Y-89362500I0J-137500D01*
G01*
X149400000Y-90812500D01*
G75*
G02*
X149262500Y-90950000I-137500J0D01*
G01*
G37*
G36*
G01*
X148612500Y-90950000D02*
X148337500Y-90950000D01*
G75*
G02*
X148200000Y-90812500I0J137500D01*
G01*
X148200000Y-89362500D01*
G75*
G02*
X148337500Y-89225000I137500J0D01*
G01*
X148612500Y-89225000D01*
G75*
G02*
X148750000Y-89362500I0J-137500D01*
G01*
X148750000Y-90812500D01*
G75*
G02*
X148612500Y-90950000I-137500J0D01*
G01*
G37*
G36*
G01*
X147962500Y-90950000D02*
X147687500Y-90950000D01*
G75*
G02*
X147550000Y-90812500I0J137500D01*
G01*
X147550000Y-89362500D01*
G75*
G02*
X147687500Y-89225000I137500J0D01*
G01*
X147962500Y-89225000D01*
G75*
G02*
X148100000Y-89362500I0J-137500D01*
G01*
X148100000Y-90812500D01*
G75*
G02*
X147962500Y-90950000I-137500J0D01*
G01*
G37*
%TD*%
D12*
%TO.C,U3*%
X138000000Y-98200000D03*
X139900000Y-98200000D03*
D13*
X139900000Y-100600000D03*
D12*
X138950000Y-100400000D03*
X138000000Y-100400000D03*
%TD*%
%TO.C,C11*%
G36*
G01*
X148181250Y-105537500D02*
X147618750Y-105537500D01*
G75*
G02*
X147375000Y-105293750I0J243750D01*
G01*
X147375000Y-104806250D01*
G75*
G02*
X147618750Y-104562500I243750J0D01*
G01*
X148181250Y-104562500D01*
G75*
G02*
X148425000Y-104806250I0J-243750D01*
G01*
X148425000Y-105293750D01*
G75*
G02*
X148181250Y-105537500I-243750J0D01*
G01*
G37*
G36*
G01*
X148181250Y-103962500D02*
X147618750Y-103962500D01*
G75*
G02*
X147375000Y-103718750I0J243750D01*
G01*
X147375000Y-103231250D01*
G75*
G02*
X147618750Y-102987500I243750J0D01*
G01*
X148181250Y-102987500D01*
G75*
G02*
X148425000Y-103231250I0J-243750D01*
G01*
X148425000Y-103718750D01*
G75*
G02*
X148181250Y-103962500I-243750J0D01*
G01*
G37*
%TD*%
%TO.C,C12*%
G36*
G01*
X138987500Y-95818750D02*
X138987500Y-96381250D01*
G75*
G02*
X138743750Y-96625000I-243750J0D01*
G01*
X138256250Y-96625000D01*
G75*
G02*
X138012500Y-96381250I0J243750D01*
G01*
X138012500Y-95818750D01*
G75*
G02*
X138256250Y-95575000I243750J0D01*
G01*
X138743750Y-95575000D01*
G75*
G02*
X138987500Y-95818750I0J-243750D01*
G01*
G37*
G36*
G01*
X137412500Y-95818750D02*
X137412500Y-96381250D01*
G75*
G02*
X137168750Y-96625000I-243750J0D01*
G01*
X136681250Y-96625000D01*
G75*
G02*
X136437500Y-96381250I0J243750D01*
G01*
X136437500Y-95818750D01*
G75*
G02*
X136681250Y-95575000I243750J0D01*
G01*
X137168750Y-95575000D01*
G75*
G02*
X137412500Y-95818750I0J-243750D01*
G01*
G37*
%TD*%
D14*
%TO.C,D3*%
X135850000Y-89000000D03*
X135850000Y-87950000D03*
X137500000Y-87950000D03*
X137500000Y-89000000D03*
%TD*%
%TO.C,R4*%
G36*
G01*
X140415000Y-88302500D02*
X140415000Y-88697500D01*
G75*
G02*
X140242500Y-88870000I-172500J0D01*
G01*
X139897500Y-88870000D01*
G75*
G02*
X139725000Y-88697500I0J172500D01*
G01*
X139725000Y-88302500D01*
G75*
G02*
X139897500Y-88130000I172500J0D01*
G01*
X140242500Y-88130000D01*
G75*
G02*
X140415000Y-88302500I0J-172500D01*
G01*
G37*
G36*
G01*
X139445000Y-88302500D02*
X139445000Y-88697500D01*
G75*
G02*
X139272500Y-88870000I-172500J0D01*
G01*
X138927500Y-88870000D01*
G75*
G02*
X138755000Y-88697500I0J172500D01*
G01*
X138755000Y-88302500D01*
G75*
G02*
X138927500Y-88130000I172500J0D01*
G01*
X139272500Y-88130000D01*
G75*
G02*
X139445000Y-88302500I0J-172500D01*
G01*
G37*
%TD*%
%TO.C,R5*%
G36*
G01*
X134697500Y-90315000D02*
X134302500Y-90315000D01*
G75*
G02*
X134130000Y-90142500I0J172500D01*
G01*
X134130000Y-89797500D01*
G75*
G02*
X134302500Y-89625000I172500J0D01*
G01*
X134697500Y-89625000D01*
G75*
G02*
X134870000Y-89797500I0J-172500D01*
G01*
X134870000Y-90142500D01*
G75*
G02*
X134697500Y-90315000I-172500J0D01*
G01*
G37*
G36*
G01*
X134697500Y-89345000D02*
X134302500Y-89345000D01*
G75*
G02*
X134130000Y-89172500I0J172500D01*
G01*
X134130000Y-88827500D01*
G75*
G02*
X134302500Y-88655000I172500J0D01*
G01*
X134697500Y-88655000D01*
G75*
G02*
X134870000Y-88827500I0J-172500D01*
G01*
X134870000Y-89172500D01*
G75*
G02*
X134697500Y-89345000I-172500J0D01*
G01*
G37*
%TD*%
%TO.C,R6*%
G36*
G01*
X139445000Y-87202500D02*
X139445000Y-87597500D01*
G75*
G02*
X139272500Y-87770000I-172500J0D01*
G01*
X138927500Y-87770000D01*
G75*
G02*
X138755000Y-87597500I0J172500D01*
G01*
X138755000Y-87202500D01*
G75*
G02*
X138927500Y-87030000I172500J0D01*
G01*
X139272500Y-87030000D01*
G75*
G02*
X139445000Y-87202500I0J-172500D01*
G01*
G37*
G36*
G01*
X140415000Y-87202500D02*
X140415000Y-87597500D01*
G75*
G02*
X140242500Y-87770000I-172500J0D01*
G01*
X139897500Y-87770000D01*
G75*
G02*
X139725000Y-87597500I0J172500D01*
G01*
X139725000Y-87202500D01*
G75*
G02*
X139897500Y-87030000I172500J0D01*
G01*
X140242500Y-87030000D01*
G75*
G02*
X140415000Y-87202500I0J-172500D01*
G01*
G37*
%TD*%
D15*
%TO.C,U2*%
X140100000Y-96100000D03*
X140750000Y-96100000D03*
X141400000Y-96100000D03*
X142050000Y-96100000D03*
X142700000Y-96100000D03*
X143350000Y-96100000D03*
X144000000Y-96100000D03*
X144650000Y-96100000D03*
X145300000Y-96100000D03*
X145950000Y-96100000D03*
X145950000Y-90200000D03*
X145300000Y-90200000D03*
X144650000Y-90200000D03*
X144000000Y-90200000D03*
X143350000Y-90200000D03*
X142700000Y-90200000D03*
X142050000Y-90200000D03*
X141400000Y-90200000D03*
X140750000Y-90200000D03*
X140100000Y-90200000D03*
%TD*%
%TO.C,C14*%
G36*
G01*
X144762500Y-102181250D02*
X144762500Y-101618750D01*
G75*
G02*
X145006250Y-101375000I243750J0D01*
G01*
X145493750Y-101375000D01*
G75*
G02*
X145737500Y-101618750I0J-243750D01*
G01*
X145737500Y-102181250D01*
G75*
G02*
X145493750Y-102425000I-243750J0D01*
G01*
X145006250Y-102425000D01*
G75*
G02*
X144762500Y-102181250I0J243750D01*
G01*
G37*
G36*
G01*
X146337500Y-102181250D02*
X146337500Y-101618750D01*
G75*
G02*
X146581250Y-101375000I243750J0D01*
G01*
X147068750Y-101375000D01*
G75*
G02*
X147312500Y-101618750I0J-243750D01*
G01*
X147312500Y-102181250D01*
G75*
G02*
X147068750Y-102425000I-243750J0D01*
G01*
X146581250Y-102425000D01*
G75*
G02*
X146337500Y-102181250I0J243750D01*
G01*
G37*
%TD*%
D16*
%TO.C,Q1*%
X143600000Y-101900000D03*
X141700000Y-101900000D03*
X142650000Y-103900000D03*
%TD*%
%TO.C,R11*%
G36*
G01*
X142285000Y-100597500D02*
X142285000Y-100202500D01*
G75*
G02*
X142457500Y-100030000I172500J0D01*
G01*
X142802500Y-100030000D01*
G75*
G02*
X142975000Y-100202500I0J-172500D01*
G01*
X142975000Y-100597500D01*
G75*
G02*
X142802500Y-100770000I-172500J0D01*
G01*
X142457500Y-100770000D01*
G75*
G02*
X142285000Y-100597500I0J172500D01*
G01*
G37*
G36*
G01*
X143255000Y-100597500D02*
X143255000Y-100202500D01*
G75*
G02*
X143427500Y-100030000I172500J0D01*
G01*
X143772500Y-100030000D01*
G75*
G02*
X143945000Y-100202500I0J-172500D01*
G01*
X143945000Y-100597500D01*
G75*
G02*
X143772500Y-100770000I-172500J0D01*
G01*
X143427500Y-100770000D01*
G75*
G02*
X143255000Y-100597500I0J172500D01*
G01*
G37*
%TD*%
%TO.C,C3*%
G36*
G01*
X146352500Y-97770000D02*
X146747500Y-97770000D01*
G75*
G02*
X146920000Y-97942500I0J-172500D01*
G01*
X146920000Y-98287500D01*
G75*
G02*
X146747500Y-98460000I-172500J0D01*
G01*
X146352500Y-98460000D01*
G75*
G02*
X146180000Y-98287500I0J172500D01*
G01*
X146180000Y-97942500D01*
G75*
G02*
X146352500Y-97770000I172500J0D01*
G01*
G37*
G36*
G01*
X146352500Y-98740000D02*
X146747500Y-98740000D01*
G75*
G02*
X146920000Y-98912500I0J-172500D01*
G01*
X146920000Y-99257500D01*
G75*
G02*
X146747500Y-99430000I-172500J0D01*
G01*
X146352500Y-99430000D01*
G75*
G02*
X146180000Y-99257500I0J172500D01*
G01*
X146180000Y-98912500D01*
G75*
G02*
X146352500Y-98740000I172500J0D01*
G01*
G37*
%TD*%
D17*
%TO.C,J1*%
X153300000Y-92400000D03*
D18*
X153300000Y-94940000D03*
X153300000Y-97480000D03*
X153300000Y-100020000D03*
X153300000Y-102560000D03*
X153300000Y-105100000D03*
%TD*%
%TO.C,R2*%
G36*
G01*
X142255000Y-98997500D02*
X142255000Y-98602500D01*
G75*
G02*
X142427500Y-98430000I172500J0D01*
G01*
X142772500Y-98430000D01*
G75*
G02*
X142945000Y-98602500I0J-172500D01*
G01*
X142945000Y-98997500D01*
G75*
G02*
X142772500Y-99170000I-172500J0D01*
G01*
X142427500Y-99170000D01*
G75*
G02*
X142255000Y-98997500I0J172500D01*
G01*
G37*
G36*
G01*
X143225000Y-98997500D02*
X143225000Y-98602500D01*
G75*
G02*
X143397500Y-98430000I172500J0D01*
G01*
X143742500Y-98430000D01*
G75*
G02*
X143915000Y-98602500I0J-172500D01*
G01*
X143915000Y-98997500D01*
G75*
G02*
X143742500Y-99170000I-172500J0D01*
G01*
X143397500Y-99170000D01*
G75*
G02*
X143225000Y-98997500I0J172500D01*
G01*
G37*
%TD*%
%TO.C,R3*%
G36*
G01*
X140325000Y-105912500D02*
X140325000Y-105387500D01*
G75*
G02*
X140587500Y-105125000I262500J0D01*
G01*
X141212500Y-105125000D01*
G75*
G02*
X141475000Y-105387500I0J-262500D01*
G01*
X141475000Y-105912500D01*
G75*
G02*
X141212500Y-106175000I-262500J0D01*
G01*
X140587500Y-106175000D01*
G75*
G02*
X140325000Y-105912500I0J262500D01*
G01*
G37*
G36*
G01*
X142075000Y-105912500D02*
X142075000Y-105387500D01*
G75*
G02*
X142337500Y-105125000I262500J0D01*
G01*
X142962500Y-105125000D01*
G75*
G02*
X143225000Y-105387500I0J-262500D01*
G01*
X143225000Y-105912500D01*
G75*
G02*
X142962500Y-106175000I-262500J0D01*
G01*
X142337500Y-106175000D01*
G75*
G02*
X142075000Y-105912500I0J262500D01*
G01*
G37*
%TD*%
D19*
%TO.C,U4*%
X148100000Y-97900000D03*
X148100000Y-98850000D03*
X148100000Y-99800000D03*
X150300000Y-99800000D03*
X150300000Y-97900000D03*
X150300000Y-98850000D03*
%TD*%
D20*
%TO.C,U5*%
X135800000Y-92150000D03*
X137900000Y-91200000D03*
X137900000Y-93100000D03*
%TD*%
D21*
%TO.C,D2*%
X149800000Y-105050000D03*
X149800000Y-102550000D03*
%TD*%
D22*
%TO.C,J2*%
X134620000Y-85000000D03*
D23*
X137160000Y-85000000D03*
X139700000Y-85000000D03*
X142240000Y-85000000D03*
X144780000Y-85000000D03*
X147320000Y-85000000D03*
%TD*%
D24*
X138950000Y-99200000D03*
X139550000Y-103749996D03*
X134600000Y-96900000D03*
X139300000Y-89600000D03*
X143700000Y-86300000D03*
X150800000Y-89900000D03*
X149700000Y-88600000D03*
X145500000Y-98900000D03*
X140900000Y-99100000D03*
X141500000Y-100200000D03*
X138500000Y-105900000D03*
X133300000Y-98200000D03*
X151100000Y-101200000D03*
X151100000Y-103800000D03*
X149700000Y-101200000D03*
X148200000Y-101200000D03*
X144700000Y-100600000D03*
X146100000Y-100800000D03*
X146800000Y-103100000D03*
X148200000Y-102300000D03*
X144100000Y-105700000D03*
X146000000Y-86300000D03*
X136400000Y-94800000D03*
X135400000Y-94800000D03*
X134400000Y-94800000D03*
X133400000Y-94800000D03*
X132700000Y-93800000D03*
X133900000Y-93800000D03*
X134900000Y-93800000D03*
X135900000Y-93800000D03*
X133900000Y-95800000D03*
X134900000Y-95800000D03*
X135900000Y-95800000D03*
X132700000Y-95800000D03*
X132700000Y-97200000D03*
X134300000Y-92300000D03*
X133200000Y-92300000D03*
X132700000Y-90800000D03*
X132700000Y-89600000D03*
X132700000Y-88400000D03*
X145400000Y-106200000D03*
X146600000Y-106200000D03*
X147900000Y-106200000D03*
X149200000Y-106200000D03*
X150500000Y-106200000D03*
X142300000Y-91700000D03*
X141400000Y-92500000D03*
X140400000Y-91800002D03*
X154500000Y-90700000D03*
X155000000Y-89700008D03*
X140800000Y-103400000D03*
X133100000Y-86400000D03*
X138900000Y-97400000D03*
X142125000Y-97600000D03*
X143500000Y-83700000D03*
X145000000Y-88400000D03*
X135900000Y-90200000D03*
X138300000Y-90100000D03*
X146800000Y-87400000D03*
X146800000Y-89100000D03*
X144200000Y-93700000D03*
X145399997Y-92500005D03*
M02*
